<?xml version="1.0" encoding="utf-8"?>
<!-- Generator: Adobe Illustrator 28.0.0, SVG Export Plug-In . SVG Version: 6.00 Build 0)  -->
<svg version="1.1" id="Слой_1" xmlns="http://www.w3.org/2000/svg" xmlns:xlink="http://www.w3.org/1999/xlink" x="0px" y="0px"
	 viewBox="0 0 11 10" style="enable-background:new 0 0 11 10;" xml:space="preserve">
<style type="text/css">
	.st0{fill:#FFFFFF;}
</style>
<g>
	<path class="st0" d="M4.5,9.8C4.3,9.8,4.2,9.7,4,9.6L0.5,6.8C0.2,6.6,0.2,6.1,0.4,5.8c0.3-0.3,0.7-0.4,1.1-0.1l2.7,2.1
		c0.7-1.7,2.4-5.4,4.7-7.4C9.2,0.2,9.7,0.2,10,0.5c0.3,0.3,0.2,0.8-0.1,1.1C7.2,3.9,5.2,9.2,5.2,9.3C5.1,9.5,4.9,9.7,4.7,9.7
		C4.6,9.7,4.6,9.8,4.5,9.8z"/>
</g>
</svg>
