<?xml version="1.0" encoding="utf-8"?>
<!-- Generator: Adobe Illustrator 28.0.0, SVG Export Plug-In . SVG Version: 6.00 Build 0)  -->
<svg version="1.1" id="Слой_1" xmlns="http://www.w3.org/2000/svg" xmlns:xlink="http://www.w3.org/1999/xlink" x="0px" y="0px"
	 viewBox="0 0 24 24" style="enable-background:new 0 0 24 24;" xml:space="preserve">
<g>
	<path d="M20,20.8c-0.2,0-0.4-0.1-0.5-0.2L12,13.1l-7.5,7.5c-0.3,0.3-0.8,0.3-1.1,0s-0.3-0.8,0-1.1l7.5-7.5L3.5,4.5
		c-0.3-0.3-0.3-0.8,0-1.1s0.8-0.3,1.1,0l7.5,7.5l7.5-7.5c0.3-0.3,0.8-0.3,1.1,0s0.3,0.8,0,1.1L13.1,12l7.5,7.5
		c0.3,0.3,0.3,0.8,0,1.1C20.4,20.7,20.2,20.8,20,20.8z"/>
</g>
</svg>
