<?xml version="1.0" encoding="utf-8"?>
<!-- Generator: Adobe Illustrator 28.0.0, SVG Export Plug-In . SVG Version: 6.00 Build 0)  -->
<svg version="1.1" id="Слой_1" xmlns="http://www.w3.org/2000/svg" xmlns:xlink="http://www.w3.org/1999/xlink" x="0px" y="0px"
	 viewBox="0 0 24 24" style="enable-background:new 0 0 24 24;" xml:space="preserve">
<style type="text/css">
	.st0{fill:#0A090B;}
</style>
<g>
	<path class="st0" d="M18,21.8H6c-0.7,0-1.4-0.3-2-0.9c-0.5-0.5-0.8-1.3-0.8-2v-3.7c0-0.4,0.3-0.8,0.8-0.8s0.8,0.3,0.8,0.8v3.7
		c0,0.4,0.1,0.7,0.4,1c0.2,0.2,0.5,0.4,0.9,0.4h12c0.3,0,0.6-0.1,0.9-0.4c0.2-0.3,0.4-0.6,0.4-1v-3.7c0-0.4,0.3-0.8,0.8-0.8
		s0.8,0.3,0.8,0.8v3.7c0,0.8-0.3,1.5-0.8,2C19.4,21.4,18.7,21.8,18,21.8z M12,15.7L12,15.7C12,15.7,12,15.7,12,15.7
		C12,15.7,12,15.7,12,15.7L12,15.7C12,15.7,12,15.7,12,15.7C12,15.7,12,15.7,12,15.7C12,15.7,12,15.7,12,15.7L12,15.7
		C12,15.7,12,15.7,12,15.7C12,15.7,12,15.7,12,15.7L12,15.7C12,15.7,12,15.7,12,15.7C12,15.7,12,15.7,12,15.7c-0.1,0-0.2,0-0.3-0.1
		h0c0,0,0,0,0,0c0,0,0,0,0,0c0,0,0,0,0,0h0c0,0,0,0,0,0c0,0,0,0,0,0h0c0,0,0,0,0,0h0c0,0,0,0,0,0c0,0,0,0,0,0c0,0,0,0,0,0
		c0,0,0,0,0,0c0,0,0,0,0,0h0c0,0,0,0,0,0c0,0,0,0,0,0c0,0,0,0,0,0c0,0,0,0,0,0h0c0,0,0,0,0,0l0,0c0,0,0,0,0,0l0,0c0,0,0,0,0,0h0
		c-0.1,0-0.1-0.1-0.2-0.1c0,0,0,0,0,0l-4.6-4.6c-0.3-0.3-0.3-0.8,0-1.1c0.3-0.3,0.8-0.3,1.1,0l3.3,3.3V3c0-0.4,0.3-0.8,0.8-0.8
		s0.8,0.3,0.8,0.8v10.1L16,9.8c0.3-0.3,0.8-0.3,1.1,0s0.3,0.8,0,1.1l-4.6,4.6c0,0,0,0,0,0v0l0,0c0,0,0,0,0,0l0,0c0,0,0,0,0,0l0,0
		c0,0,0,0,0,0c0,0,0,0,0,0c0,0,0,0,0,0c-0.1,0-0.1,0.1-0.2,0.1l0,0c0,0,0,0,0,0l0,0c0,0,0,0,0,0l0,0c0,0,0,0,0,0c0,0,0,0,0,0h0
		c0,0,0,0,0,0c0,0,0,0,0,0c0,0,0,0,0,0c0,0,0,0,0,0c0,0,0,0,0,0c0,0,0,0,0,0c0,0,0,0,0,0s0,0,0,0s0,0,0,0c0,0,0,0,0,0c0,0,0,0,0,0
		l0,0c0,0,0,0,0,0c0,0,0,0,0,0c0,0,0,0,0,0c0,0,0,0,0,0c0,0,0,0,0,0c0,0,0,0,0,0l0,0c0,0,0,0,0,0h0c0,0,0,0,0,0
		C12.2,15.7,12.1,15.7,12,15.7L12,15.7C12,15.7,12,15.7,12,15.7C12,15.7,12,15.7,12,15.7C12,15.7,12,15.7,12,15.7L12,15.7L12,15.7
		C12,15.7,12,15.7,12,15.7L12,15.7C12,15.7,12,15.7,12,15.7C12,15.7,12,15.7,12,15.7L12,15.7C12,15.7,12,15.7,12,15.7
		C12,15.7,12,15.7,12,15.7L12,15.7C12,15.7,12,15.7,12,15.7C12,15.7,12,15.7,12,15.7z"/>
</g>
</svg>
