<?xml version="1.0" encoding="utf-8"?>
<!-- Generator: Adobe Illustrator 28.0.0, SVG Export Plug-In . SVG Version: 6.00 Build 0)  -->
<svg version="1.1" id="Слой_1" xmlns="http://www.w3.org/2000/svg" xmlns:xlink="http://www.w3.org/1999/xlink" x="0px" y="0px"
	 viewBox="0 0 20 20" style="enable-background:new 0 0 20 20;" xml:space="preserve">
<style type="text/css">
	.st0{fill:#FFFFFF;}
</style>
<g>
	<path class="st0" d="M14,19.1H4.5c-2,0-3.6-1.6-3.6-3.6V6c0-2,1.6-3.6,3.6-3.6h4.7c0.4,0,0.8,0.3,0.8,0.8S9.7,3.9,9.2,3.9H4.5
		C3.4,3.9,2.4,4.9,2.4,6v9.5c0,1.2,0.9,2.1,2.1,2.1H14c1.2,0,2.1-0.9,2.1-2.1v-4.7c0-0.4,0.3-0.8,0.8-0.8s0.8,0.3,0.8,0.8v4.7
		C17.6,17.5,16,19.1,14,19.1z M6.4,14.3c-0.2,0-0.4-0.1-0.5-0.2c-0.2-0.2-0.3-0.4-0.2-0.7L6.4,10c0.1-0.3,0.2-0.6,0.5-0.9l7.7-7.7
		c0.7-0.7,1.7-0.7,2.4,0L18.6,3c0.3,0.3,0.5,0.7,0.5,1.2c0,0.5-0.2,0.9-0.5,1.2l-7.7,7.7c-0.2,0.2-0.5,0.4-0.9,0.5l-3.4,0.7
		C6.5,14.3,6.5,14.3,6.4,14.3z M15.8,2.4c-0.1,0-0.1,0-0.1,0.1l-7.7,7.7c0,0,0,0.1-0.1,0.1l-0.5,2.3l2.3-0.5c0,0,0.1,0,0.1-0.1
		l7.7-7.7c0.1-0.1,0.1-0.2,0-0.3l-1.6-1.6C15.9,2.4,15.8,2.4,15.8,2.4z"/>
</g>
</svg>
