<svg width="24" height="25" viewBox="0 0 24 25" fill="none" xmlns="http://www.w3.org/2000/svg">
<path d="M20.3507 6.83065C20.5307 6.72065 20.5915 6.47636 20.4552 6.31206C20.0424 5.81482 19.4313 5.5 18.75 5.5H5.25C4.49432 5.5 3.82635 5.88703 3.41835 6.48067C3.30512 6.64542 3.36776 6.86833 3.5337 6.97443L11.0602 11.7871C11.4149 12.0139 11.8612 12.0185 12.2202 11.7991L20.3507 6.83065Z" fill="#1751D0"/>
<path d="M21 9.37417C21 9.07284 20.6849 8.88557 20.4349 9.03835L12.2944 14.0132C11.8755 14.2689 11.3555 14.2636 10.9409 13.9991L3.57156 9.28675C3.32171 9.12698 3 9.31374 3 9.61855L3 17.1623C3 18.4533 4.00781 19.5 5.25 19.5H18.75C19.9922 19.5 21 18.4533 21 17.1623V9.37417Z" fill="#1751D0"/>
</svg>
