<?xml version="1.0" encoding="utf-8"?>
<!-- Generator: Adobe Illustrator 28.0.0, SVG Export Plug-In . SVG Version: 6.00 Build 0)  -->
<svg version="1.1" id="Слой_1" xmlns="http://www.w3.org/2000/svg" xmlns:xlink="http://www.w3.org/1999/xlink" x="0px" y="0px"
	 viewBox="0 0 24 24" style="enable-background:new 0 0 24 24;" xml:space="preserve">
<style type="text/css">
	.st0{fill-rule:evenodd;clip-rule:evenodd;fill:#7F7D83;}
	.st1{fill-rule:evenodd;clip-rule:evenodd;fill:#FFFFFF;}
	.st2{fill:#7F7D83;}
</style>
<g>
	<path class="st0" d="M12,18.6c5.9,0.1,8.6-4.2,9.3-5.9c0.2-0.4,0.2-0.8,0-1.2C20.6,9.9,18,5.4,12,5.4s-8.6,4.4-9.3,6.1
		c-0.2,0.4-0.2,0.9,0,1.3C3.5,14.4,6.1,18.5,12,18.6z"/>
	<ellipse class="st1" cx="12" cy="12" rx="4.3" ry="4"/>
	<path class="st2" d="M14.4,12c0,1.2-1.1,2.2-2.4,2.2s-2.4-1-2.4-2.2s1.1-2.2,2.4-2.2S14.4,10.8,14.4,12z"/>
</g>
</svg>
