<svg width="24" height="24" viewBox="0 0 24 24" fill="none" xmlns="http://www.w3.org/2000/svg">
<path d="M10.0233 7.21529C10.173 7.35887 10.3948 7.39234 10.589 7.31955C11.0405 7.15032 11.5177 7.0617 11.9999 7.05843C13.1456 7.05843 14.2444 7.52696 15.0546 8.36095C15.8648 9.19493 16.3199 10.3261 16.3199 11.5055C16.319 11.9189 16.26 12.3294 16.1453 12.7243C16.0895 12.9164 16.1353 13.1269 16.2799 13.2651L18.3703 15.2627C18.5653 15.449 18.8735 15.4478 19.0594 15.2525C19.9014 14.368 20.6238 13.3716 21.2076 12.2901C21.4732 11.7981 21.4797 11.2133 21.2121 10.7222C20.2251 8.91124 17.3124 4.58784 11.9999 4.58784C10.9196 4.58277 9.84869 4.77265 8.83536 5.14695C8.50526 5.26888 8.43401 5.69077 8.68796 5.93437L10.0233 7.21529ZM17.6351 16.4961L14.8799 13.8377L13.9199 12.9384L10.5023 9.58832L9.1199 8.23443L6.9215 6.11961L4.67853 3.94699C4.48038 3.75505 4.16423 3.75986 3.97201 3.95773L3.70876 4.22873C3.51616 4.42699 3.52097 4.74389 3.71948 4.93622L5.41726 6.58114C5.62749 6.78481 5.61795 7.12415 5.40529 7.32527C4.36637 8.30784 3.48599 9.45348 2.79655 10.719C2.528 11.2119 2.52076 11.7992 2.78952 12.292C3.77825 14.105 6.69056 18.4231 11.9999 18.4231C13.4315 18.4304 14.8437 18.0967 16.1266 17.4503C16.3233 17.3512 16.5625 17.3815 16.7207 17.5347L19.3213 20.0524C19.5194 20.2443 19.8355 20.2394 20.0277 20.0416L20.2913 19.7702C20.4838 19.5721 20.4791 19.2554 20.2808 19.063L17.6351 16.4961ZM11.9999 15.9525C10.8542 15.9525 9.75536 15.484 8.9452 14.65C8.13504 13.8161 7.6799 12.6849 7.6799 11.5055C7.68369 10.9597 7.78612 10.4213 7.98006 9.91732C8.09775 9.61147 8.48607 9.55437 8.72143 9.78241L9.4999 10.5366C9.63741 10.6699 9.68244 10.8692 9.64588 11.0571C9.61719 11.2046 9.60176 11.3547 9.5999 11.5055C9.59893 11.9077 9.69375 12.304 9.87606 12.6598C10.0584 13.0155 10.3226 13.3199 10.6457 13.5461C10.9687 13.7724 11.3407 13.9136 11.7291 13.9576C12.0091 13.9893 12.2914 13.9697 12.5632 13.9006C12.7558 13.8517 12.9657 13.8875 13.1083 14.0258L13.9092 14.802C14.1373 15.0231 14.1038 15.4 13.8175 15.5376C13.2507 15.8101 12.6304 15.9528 11.9999 15.9525Z" fill="#C9C9CC"/>
</svg>
