<?xml version="1.0" encoding="utf-8"?>
<!-- Generator: Adobe Illustrator 28.0.0, SVG Export Plug-In . SVG Version: 6.00 Build 0)  -->
<svg version="1.1" id="Слой_1" xmlns="http://www.w3.org/2000/svg" xmlns:xlink="http://www.w3.org/1999/xlink" x="0px" y="0px"
	 viewBox="0 0 24 24" style="enable-background:new 0 0 24 24;" xml:space="preserve">
<style type="text/css">
	.st0{fill-rule:evenodd;clip-rule:evenodd;fill:#C9C9CC;}
	.st1{fill:#C9C9CC;}
</style>
<symbol  id="Новый_символ" viewBox="-9.5 -6.6 19 13.2">
	<path class="st0" d="M0-6.6c5.9-0.1,8.6,4.2,9.3,5.9c0.2,0.4,0.2,0.8,0,1.2C8.6,2.2,6,6.6,0,6.6c-6,0-8.6-4.4-9.3-6.1
		c-0.2-0.4-0.2-0.9,0-1.3C-8.5-2.3-5.9-6.5,0-6.6z M0-4.1c2.4,0,4.3,1.8,4.3,4c0,2.2-1.9,4-4.3,4c-2.4,0-4.3-1.8-4.3-4
		C-4.3-2.3-2.4-4.1,0-4.1z"/>
	<path class="st1" d="M2.4,0c0-1.2-1.1-2.2-2.4-2.2s-2.4,1-2.4,2.2c0,1.2,1.1,2.2,2.4,2.2S2.4,1.2,2.4,0z"/>
</symbol>
<use xlink:href="#Новый_символ"  width="19" height="13.2" x="-9.5" y="-6.6" transform="matrix(1 0 0 -1 12.0018 12.0004)" style="overflow:visible;"/>
</svg>
