<svg width="32" height="32" viewBox="0 0 32 32" fill="none" xmlns="http://www.w3.org/2000/svg">
<path fill-rule="evenodd" clip-rule="evenodd" d="M14.2368 2.46191C16.4878 2.46191 18.3127 4.309 18.3127 6.58726C18.3127 8.01312 17.5978 9.27011 16.5113 10.011V7.69297C16.6708 7.35848 16.76 6.98351 16.76 6.58726C16.76 5.17853 15.6303 4.0365 14.2368 4.0365C12.8432 4.0365 11.7136 5.17853 11.7136 6.58726C11.7136 7.08992 11.8575 7.55834 12.1057 7.95344V10.1045C10.9391 9.37883 10.1608 8.07511 10.1608 6.58726C10.1608 4.30877 11.9857 2.46191 14.2368 2.46191ZM2.71351 6.26619L4.58383 4.63585C4.60664 4.61596 4.62809 4.59514 4.65021 4.57479C4.77499 4.46028 4.9406 4.41124 5.10485 4.48064C5.33045 4.57571 5.35919 4.76678 5.35919 4.9715V8.3483C5.35919 8.56736 5.36056 8.77925 5.10895 8.88866C4.93718 8.96338 4.76723 8.90832 4.63903 8.78757C4.60892 8.75912 4.57972 8.72974 4.55874 8.70985L2.70507 7.09408C2.57048 6.97681 2.45825 6.88729 2.46099 6.67725C2.4635 6.46397 2.57869 6.38347 2.71351 6.26619ZM6.47445 6.26619L8.34477 4.63585C8.36736 4.61596 8.38903 4.59514 8.41115 4.57479C8.53593 4.46028 8.70155 4.41124 8.86579 4.48064C9.09117 4.57571 9.12014 4.76678 9.12014 4.9715V8.3483C9.12014 8.56736 9.12151 8.77925 8.87012 8.88866C8.69835 8.96338 8.5284 8.90832 8.4002 8.78757C8.37009 8.75912 8.34089 8.72974 8.31991 8.70985L6.46601 7.09408C6.33142 6.97681 6.21919 6.88729 6.22193 6.67725C6.22467 6.46397 6.33986 6.38347 6.47445 6.26619ZM9.00517 16.1731C9.60739 15.4646 10.6138 15.4408 11.2416 16.1204L12.7266 17.7278V7.55279C12.7266 6.57084 13.4384 5.7677 14.3084 5.7677C15.1784 5.7677 15.8902 6.57084 15.8902 7.55279V13.6978C16.1605 13.1482 16.6806 12.7739 17.2741 12.7739C18.1442 12.7739 18.8561 13.5773 18.8561 14.559V15.0878C19.0934 14.4387 19.6609 13.9788 20.3192 13.9788C21.5346 13.9788 21.901 15.0623 21.901 16.2157C22.0618 15.423 22.6937 14.8269 23.4433 14.8269C24.3133 14.8269 25.025 15.6302 25.025 16.6119V22.19C24.9187 24.961 23.5382 29.4684 19.9346 29.5015L15.8774 29.5388C14.9204 29.5476 13.9416 28.6685 13.4783 27.7236L9.05216 18.6971C8.63083 17.8379 8.40294 16.8817 9.00517 16.1731Z" fill="#C9C9CC"/>
</svg>
