<?xml version="1.0" encoding="utf-8"?>
<!-- Generator: Adobe Illustrator 28.0.0, SVG Export Plug-In . SVG Version: 6.00 Build 0)  -->
<svg version="1.1" id="Слой_1" xmlns="http://www.w3.org/2000/svg" xmlns:xlink="http://www.w3.org/1999/xlink" x="0px" y="0px"
	 viewBox="0 0 20 20" style="enable-background:new 0 0 20 20;" xml:space="preserve">
<style type="text/css">
	.st0{fill:#FFFFFF;}
</style>
<g>
	<path class="st0" d="M12.9,18.2H7.1c-1.3,0-2.4-1.1-2.4-2.5L4.3,6.1c0-0.1,0-0.1,0-0.2h-1c-0.4,0-0.8-0.3-0.8-0.8s0.3-0.8,0.8-0.8
		h13.3c0.4,0,0.8,0.3,0.8,0.8s-0.3,0.8-0.8,0.8h-1c0,0.1,0,0.1,0,0.2l-0.4,9.7C15.3,17.1,14.2,18.2,12.9,18.2z M5.9,5.9
		C5.8,5.9,5.8,6,5.8,6l0.4,9.7c0,0.6,0.4,1,0.9,1h5.8c0.5,0,0.9-0.5,0.9-1L14.2,6c0-0.1,0-0.1,0-0.1L5.9,5.9z M12.5,3.2h-5
		c-0.4,0-0.8-0.3-0.8-0.8s0.3-0.8,0.8-0.8h5c0.4,0,0.8,0.3,0.8,0.8S12.9,3.2,12.5,3.2z"/>
</g>
</svg>
