<?xml version="1.0" encoding="utf-8"?>
<!-- Generator: Adobe Illustrator 28.0.0, SVG Export Plug-In . SVG Version: 6.00 Build 0)  -->
<svg version="1.1" id="Слой_1" xmlns="http://www.w3.org/2000/svg" xmlns:xlink="http://www.w3.org/1999/xlink" x="0px" y="0px"
	 viewBox="0 0 24 24" style="enable-background:new 0 0 24 24;" xml:space="preserve">
<style type="text/css">
	.st0{fill:#4F4D55;}
</style>
<g>
	<path class="st0" d="M21.6,21.3c-0.4,0-0.8-0.3-0.8-0.8v-3.2c0-1.4-1.1-2.5-2.5-2.5c-0.4,0-0.8-0.3-0.8-0.8s0.3-0.8,0.8-0.8
		c2.2,0,4,1.8,4,4v3.2C22.4,21,22,21.3,21.6,21.3z M16,21.3L16,21.3c-0.4,0-0.8-0.3-0.8-0.8l0-3.2c0-1.4-1.1-2.5-2.5-2.5H5.6
		c-1.4,0-2.5,1.1-2.5,2.5l0,3.2c0,0.4-0.3,0.8-0.8,0.8l0,0c-0.4,0-0.8-0.3-0.8-0.8l0-3.2c0-2.2,1.8-4,4-4h7.2c2.2,0,4,1.8,4,4l0,3.2
		C16.8,21,16.4,21.3,16,21.3z M9.3,10.6c-2.2,0-4-1.8-4-4c0-2.2,1.8-4,4-4c2.2,0,4,1.8,4,4C13.2,8.8,11.5,10.6,9.3,10.6z M9.3,4.2
		c-1.4,0-2.5,1.1-2.5,2.5c0,1.4,1.1,2.5,2.5,2.5c1.4,0,2.5-1.1,2.5-2.5C11.7,5.3,10.6,4.2,9.3,4.2z M15.4,10c-0.2,0-0.5-0.1-0.6-0.3
		c-0.2-0.3-0.2-0.8,0.2-1c0.6-0.5,1-1.2,1-2c0-0.8-0.4-1.5-1-2c-0.3-0.2-0.4-0.7-0.2-1c0.2-0.3,0.7-0.4,1-0.2c1,0.7,1.6,1.9,1.6,3.2
		c0,1.3-0.6,2.4-1.6,3.2C15.7,9.9,15.6,10,15.4,10z"/>
</g>
</svg>
