<?xml version="1.0" encoding="utf-8"?>
<!-- Generator: Adobe Illustrator 28.0.0, SVG Export Plug-In . SVG Version: 6.00 Build 0)  -->
<svg version="1.1" id="Слой_1" xmlns="http://www.w3.org/2000/svg" xmlns:xlink="http://www.w3.org/1999/xlink" x="0px" y="0px"
	 viewBox="0 0 21 26" style="enable-background:new 0 0 21 26;" xml:space="preserve">
<style type="text/css">
	.st0{fill:#1751D0;}
</style>
<g>
	<path class="st0" d="M16.8,25.8H4.2c-2.2,0-3.9-1.8-3.9-4V4.2c0-2.2,1.8-4,3.9-4h7.7c0.9,0,1.7,0.4,2.3,1l5.8,6.2
		c0.6,0.6,0.9,1.4,0.9,2.2v12.2C20.8,24,19,25.8,16.8,25.8z M3.8,1.8C2.6,2,1.8,3,1.8,4.2v17.6c0,1.4,1.1,2.5,2.4,2.5h12.7
		c1.3,0,2.4-1.1,2.4-2.5v-12h-5.6c-1.3,0-2.3-1.1-2.3-2.4V1.8h-6v2.5l0.4,0c0.9,0,1.5,0.7,1.5,1.5v1.6C7.3,8.3,6.6,9,5.8,9H5.4
		l0,1.2l0.8,0c0.9,0,1.5,0.7,1.5,1.5v0.8c0,0.9-0.7,1.5-1.5,1.5H5.4l0,1.3l0.8,0c0.9,0,1.5,0.7,1.5,1.5v1.2H6.2V17l-0.8,0
		c-0.9,0-1.5-0.7-1.5-1.5v-1.2c0-0.9,0.7-1.6,1.5-1.6h0.8l0-0.9l-0.8,0c-0.9,0-1.5-0.7-1.5-1.5V9c0-0.9,0.7-1.5,1.5-1.5h0.4l0-1.7
		l-0.4,0c-0.9,0-1.5-0.7-1.5-1.5V1.8z M12.8,2.1v5.3c0,0.5,0.4,0.9,0.8,0.9h5l-5.6-6C13,2.2,12.9,2.1,12.8,2.1z"/>
</g>
</svg>
