<svg width="50" height="50" viewBox="0 0 50 50" fill="none" xmlns="http://www.w3.org/2000/svg">
<rect x="0.601562" y="0.599609" width="48.8" height="48.8" rx="4" fill="#F1F1F1"/>
<path fill-rule="evenodd" clip-rule="evenodd" d="M25.0005 36.5205C31.3628 36.5205 36.5205 31.3628 36.5205 25.0005C36.5205 18.6381 31.3628 13.4805 25.0005 13.4805C18.6381 13.4805 13.4805 18.6381 13.4805 25.0005C13.4805 31.3628 18.6381 36.5205 25.0005 36.5205ZM23.5605 25.0005C23.5605 25.7958 24.2052 26.4405 25.0005 26.4405C25.7958 26.4405 26.4405 25.7958 26.4405 25.0005V19.2405C26.4405 18.4452 25.7958 17.8005 25.0005 17.8005C24.2052 17.8005 23.5605 18.4452 23.5605 19.2405V25.0005ZM23.5605 30.0405C23.5605 30.8358 24.2052 31.4805 25.0005 31.4805C25.7958 31.4805 26.4405 30.8358 26.4405 30.0405C26.4405 29.2452 25.7958 28.6005 25.0005 28.6005C24.2052 28.6005 23.5605 29.2452 23.5605 30.0405Z" fill="#1751D0"/>
</svg>
