<svg width="1043" height="654" viewBox="0 0 1043 654" fill="none" xmlns="http://www.w3.org/2000/svg">
<path fill-rule="evenodd" clip-rule="evenodd" d="M59.2287 87.3222C-29.9008 130.42 -116.352 183.917 -186.419 233.927L-187 233.113C-116.895 183.076 -30.3953 129.548 58.7934 86.4219C147.976 43.2986 239.878 10.5591 320.78 2.12631C401.68 -6.30634 471.679 9.56157 516.896 63.7833C562.094 117.984 582.414 210.374 564.307 354.703C555.258 426.825 552.986 483.816 556.301 527.815C559.617 571.821 568.518 602.782 581.774 622.884C595.011 642.958 612.598 652.22 633.395 652.839C654.229 653.46 678.329 645.407 704.536 630.729C756.947 601.376 817.576 545.646 876.974 480.524C936.363 415.411 994.491 340.946 1041.9 274.159L1042.71 274.737C995.288 341.55 937.136 416.049 877.713 481.198C818.298 546.338 757.581 602.167 705.025 631.602C678.749 646.318 654.461 654.467 633.365 653.839C612.233 653.209 594.35 643.771 580.939 623.435C567.548 603.127 558.625 571.97 555.304 527.89C551.982 483.801 554.261 426.738 563.314 354.579C581.41 210.346 561.059 118.304 516.128 64.4238C471.214 10.5652 401.621 -5.29474 320.883 3.12092C240.147 11.5365 148.365 44.2214 59.2287 87.3222Z" fill="url(#paint0_linear_182_91429)"/>
<path fill-rule="evenodd" clip-rule="evenodd" d="M-90.0955 328.446C-125.924 361.942 -152.124 410.774 -166.121 446.218L-167.051 445.85C-153.026 410.335 -126.758 361.352 -90.7784 327.715C-72.7853 310.893 -52.3423 297.89 -29.7667 292.347C-7.18025 286.802 17.5062 288.734 43.9532 301.727L43.9564 301.728C76.5293 318.018 100.294 346.585 119.821 378.209C132.135 398.152 142.793 419.366 152.91 439.503C158.823 451.273 164.552 462.674 170.318 473.239C178.145 487.581 186.048 500.396 194.594 510.564C203.141 520.732 212.308 528.225 222.658 531.964C243.309 539.424 268.941 532.013 304.191 500.205L304.2 500.197L304.21 500.189C339.133 471.728 373.339 458.993 405.359 457.67C437.375 456.348 467.16 466.439 493.241 483.555C545.386 517.774 582.783 580.107 593.742 635.701L592.761 635.894C581.848 580.533 544.589 518.447 492.693 484.391C466.753 467.368 437.172 457.357 405.4 458.669C373.633 459.981 339.632 472.614 304.852 500.956C269.536 532.82 243.513 540.561 222.318 532.904C211.743 529.084 202.439 521.451 193.829 511.207C185.218 500.963 177.278 488.079 169.44 473.718C163.64 463.09 157.898 451.661 151.98 439.88C141.881 419.777 131.268 398.651 118.97 378.735C99.4826 347.174 75.8394 318.792 43.5107 302.623C17.2667 289.73 -7.17918 287.831 -29.5282 293.319C-51.8886 298.808 -72.1846 311.701 -90.0955 328.446Z" fill="url(#paint1_linear_182_91429)"/>
<path fill-rule="evenodd" clip-rule="evenodd" d="M-82.6341 315.533C-121.128 349.512 -150.338 398.581 -167.139 434.757L-168.046 434.336C-151.217 398.099 -121.936 348.891 -83.2959 314.783C-44.6441 280.664 3.44957 261.599 57.7912 285.879L57.7973 285.882C90.7673 301.145 115.232 328.376 135.446 358.907C149.227 379.722 161.058 402.114 172.26 423.315C177.481 433.197 182.565 442.82 187.647 451.904C195.646 466.205 203.642 479.178 212.163 489.766C220.685 500.355 229.712 508.533 239.769 513.275C259.816 522.728 284.173 518.616 317.176 492.028L317.201 492.008L317.228 491.992C381.825 452.339 449.007 460.474 503.795 490.03C558.562 519.576 601.003 570.553 616.179 616.712L615.229 617.024C600.142 571.135 557.888 520.348 503.32 490.91C448.78 461.488 381.997 453.42 317.778 492.827C284.658 519.502 259.891 523.869 239.342 514.179C229.098 509.348 219.957 501.046 211.384 490.393C202.81 479.739 194.782 466.709 186.774 452.392C181.669 443.266 176.572 433.619 171.345 423.725C160.155 402.546 148.366 380.233 134.612 359.459C114.444 328.998 90.1068 301.942 57.3801 286.791C3.52693 262.731 -44.1533 281.565 -82.6341 315.533Z" fill="url(#paint2_linear_182_91429)"/>
<path fill-rule="evenodd" clip-rule="evenodd" d="M-75.1715 302.68C-116.33 337.142 -148.552 386.446 -168.157 423.354L-169.04 422.885C-149.408 385.925 -117.114 336.493 -75.8135 301.913C-34.506 267.326 15.8889 247.542 71.6298 270.093L71.6385 270.097C105.005 284.333 130.17 310.229 151.071 339.666C166.567 361.49 179.743 385.298 192.18 407.77C196.513 415.599 200.756 423.265 204.976 430.629C221.336 459.178 237.331 483.139 256.877 494.65C266.629 500.392 277.265 503.034 289.289 501.589C301.324 500.144 314.786 494.6 330.169 483.909L330.22 483.874L330.278 483.852C389.557 461.519 456.96 471.694 514.347 496.57C571.724 521.442 619.201 561.061 638.599 597.765L637.715 598.233C618.46 561.798 571.202 522.306 513.949 497.487C456.725 472.681 389.628 462.584 330.688 484.766C315.241 495.493 301.643 501.113 289.408 502.582C277.149 504.055 266.295 501.356 256.37 495.511C236.562 483.847 220.452 459.646 204.108 431.126C199.873 423.736 195.62 416.052 191.282 408.213C178.852 385.753 165.716 362.019 150.256 340.245C129.408 310.883 104.376 285.153 71.2506 271.019C15.9844 248.662 -34.0211 268.225 -75.1715 302.68Z" fill="url(#paint3_linear_182_91429)"/>
<path fill-rule="evenodd" clip-rule="evenodd" d="M-67.7083 289.887C-111.533 324.832 -146.766 374.372 -169.175 412.01L-170.034 411.498C-147.599 373.815 -112.292 324.158 -68.3317 289.106C-24.3679 254.05 28.329 233.547 85.4685 254.37L85.4796 254.374L85.4795 254.374C119.242 267.583 145.107 292.143 166.696 320.486C184.217 343.489 198.944 369.017 212.792 393.02C216.003 398.585 219.165 404.067 222.305 409.417C239.009 437.881 255.029 462.559 273.982 476.089C283.443 482.843 293.621 486.807 304.974 487.081C316.332 487.356 328.911 483.938 343.172 475.849L343.265 475.796L343.372 475.786C397.288 470.774 464.899 482.964 524.898 503.175C554.903 513.282 583.019 525.401 606.581 538.389C630.136 551.373 649.171 565.243 660.987 578.865L660.232 579.52C648.527 566.026 629.607 552.223 606.098 539.265C582.596 526.31 554.537 514.214 524.579 504.123C464.694 483.95 397.28 471.804 343.572 476.771C329.236 484.887 316.509 488.36 304.95 488.081C293.362 487.801 282.994 483.751 273.401 476.903C254.247 463.23 238.129 438.359 221.442 409.923C218.295 404.559 215.127 399.068 211.913 393.498C198.067 369.498 183.379 344.039 165.9 321.092C144.372 292.829 118.645 268.425 85.1206 255.308C28.4407 234.654 -23.8891 254.947 -67.7083 289.887Z" fill="url(#paint4_linear_182_91429)"/>
<path fill-rule="evenodd" clip-rule="evenodd" d="M-60.2443 277.162C-106.734 312.588 -144.98 362.363 -170.193 400.731L-171.028 400.182C-145.789 361.774 -107.471 311.892 -60.8504 276.366C-14.2296 240.841 40.7701 219.619 99.3076 238.715L99.3206 238.719L99.3205 238.72C133.479 250.902 160.043 274.126 182.319 301.374C202.262 325.769 218.79 353.418 234.256 379.289C236.062 382.31 237.853 385.307 239.634 388.272C256.682 416.653 272.727 442.045 291.083 457.598C300.251 465.365 309.975 470.66 320.668 472.653C331.357 474.644 343.056 473.344 356.19 467.854L356.344 467.789L356.505 467.83C380.386 473.866 408.94 480.372 439.255 487.28L440.686 487.606C471.53 494.634 504.14 502.074 535.45 509.851C566.76 517.629 596.777 525.746 622.437 534.128C648.086 542.508 669.417 551.165 683.331 560.031L682.794 560.875C668.992 552.079 647.761 543.454 622.126 535.079C596.5 526.707 566.509 518.597 535.209 510.822C503.91 503.047 471.309 495.609 440.464 488.581L439.019 488.252C408.781 481.362 380.279 474.868 356.422 468.84C343.2 474.339 331.353 475.661 320.485 473.636C309.578 471.603 299.699 466.208 290.437 458.361C271.932 442.682 255.806 417.137 238.777 388.787C236.996 385.821 235.204 382.824 233.399 379.804C217.928 353.925 201.438 326.341 181.545 302.007C159.337 274.842 132.915 251.764 98.9908 239.664C40.8965 220.715 -13.7569 241.738 -60.2443 277.162Z" fill="url(#paint5_linear_182_91429)"/>
<path fill-rule="evenodd" clip-rule="evenodd" d="M-52.7803 264.505C-101.936 300.412 -143.194 350.422 -171.211 389.52L-172.023 388.937C-143.981 349.804 -102.65 299.696 -53.3702 263.698C-4.09189 227.7 53.2113 205.76 113.146 223.13L113.154 223.132L113.161 223.135C182.103 245.392 222.053 310.394 256.743 366.838L256.963 367.196C274.355 395.495 290.425 421.598 308.18 439.176C325.911 456.732 345.254 465.72 369.229 459.93L369.445 459.877L369.629 460.003C412.758 489.468 480.742 505.694 546.003 516.601C573.589 521.211 600.67 524.869 625.16 528.176C629.627 528.779 634.008 529.371 638.29 529.955C666.034 533.737 689.65 537.186 705.639 541.299L705.39 542.267C689.469 538.172 665.916 534.73 638.155 530.946C633.875 530.362 629.496 529.771 625.03 529.168C600.54 525.86 573.442 522.2 545.838 517.587C480.677 506.697 412.588 490.478 369.248 460.953C344.922 466.746 325.305 457.539 307.476 439.887C289.617 422.205 273.482 395.985 256.111 367.72L255.982 367.51C221.227 310.96 181.447 246.235 112.861 224.089C53.3513 206.845 -3.62518 228.598 -52.7803 264.505Z" fill="url(#paint6_linear_182_91429)"/>
<path fill-rule="evenodd" clip-rule="evenodd" d="M-45.3155 251.923C-97.1362 288.311 -141.407 338.555 -172.228 378.382L-173.019 377.77C-142.173 337.911 -97.8304 287.577 -45.8901 251.105C6.04623 214.635 65.6535 191.976 126.986 207.621L126.994 207.623L127.001 207.626C196.886 227.879 238.854 289.82 274.292 346.196C276.437 349.609 278.559 353.002 280.661 356.363C295.938 380.794 310.196 403.595 325.272 420.83C342.419 440.433 360.535 452.731 382.296 452.092L382.544 452.085L382.7 452.277C420.497 498.911 488.672 517.171 556.557 523.429C611.133 528.46 665.406 525.727 703.363 523.815C712.603 523.35 720.875 522.933 727.951 522.689L727.985 523.688C720.93 523.932 712.672 524.348 703.444 524.813C665.491 526.724 611.122 529.463 556.465 524.424C488.633 518.171 420.18 499.928 382.078 453.098C359.982 453.65 341.675 441.101 324.52 421.489C309.387 404.189 295.082 381.311 279.812 356.892C277.71 353.53 275.589 350.139 273.445 346.728C237.983 290.315 196.196 228.724 126.731 208.588C65.806 193.051 6.50693 215.534 -45.3155 251.923Z" fill="url(#paint7_linear_182_91429)"/>
<path fill-rule="evenodd" clip-rule="evenodd" d="M-37.8496 239.419C-92.3358 276.288 -139.619 326.766 -173.244 367.321L-174.014 366.682C-140.364 326.098 -93.0104 275.537 -38.4101 238.591C16.1849 201.648 78.0966 178.271 140.826 192.192L140.834 192.193L140.842 192.195C211.522 210.398 255.486 269.05 291.621 325.274C296.638 333.08 301.502 340.837 306.266 348.433C318.678 368.224 330.407 386.926 342.362 402.562C358.908 424.203 375.801 439.847 395.388 444.359L395.615 444.412L395.721 444.619C428.232 508.439 496.62 528.725 567.114 530.338C637.591 531.95 710 514.887 750.293 504.189L750.549 505.156C710.241 515.857 637.717 532.953 567.091 531.337C496.557 529.724 427.745 509.44 394.936 445.281C375.086 440.618 358.077 424.763 341.567 403.169C329.582 387.494 317.815 368.731 305.393 348.924C300.635 341.336 295.78 333.595 290.78 325.815C254.642 269.587 210.863 211.265 140.601 193.166C78.2607 179.335 16.6395 202.548 -37.8496 239.419Z" fill="url(#paint8_linear_182_91429)"/>
<path fill-rule="evenodd" clip-rule="evenodd" d="M-30.3838 227C-87.5353 264.349 -137.831 315.06 -174.26 356.343L-175.01 355.681C-138.556 314.37 -88.1913 263.583 -30.9309 226.162C26.323 188.746 90.5398 164.65 154.666 176.847L154.675 176.849L154.683 176.851C226.157 193.003 272.117 248.365 308.95 304.438C317.777 317.875 326.084 331.361 334.093 344.362L335.137 346.056C343.469 359.581 351.486 372.551 359.447 384.378C375.381 408.047 391.046 427.06 408.483 436.749L408.652 436.843L408.714 437.027C422.346 477.577 446.323 503.393 476 518.705C505.691 534.025 541.123 538.848 577.672 537.334C650.776 534.305 728.194 505.929 772.668 485.786L773.08 486.697C728.563 506.86 651.007 535.297 577.714 538.333C541.064 539.852 505.441 535.021 475.541 519.594C445.672 504.182 421.55 478.213 407.828 437.529C390.233 427.685 374.505 408.537 358.618 384.936C350.643 373.09 342.616 360.103 334.285 346.581L333.245 344.892C325.234 331.888 316.934 318.413 308.115 304.987C271.301 248.944 225.53 193.89 154.471 177.828C90.7147 165.705 26.7717 189.648 -30.3838 227Z" fill="url(#paint9_linear_182_91429)"/>
<path fill-rule="evenodd" clip-rule="evenodd" d="M-22.9181 214.669C-82.7349 252.499 -136.044 303.443 -175.276 345.454L-176.007 344.772C-136.75 302.734 -83.3733 251.719 -23.4526 213.824C36.4607 175.934 102.983 151.119 168.506 161.594L168.515 161.595L168.523 161.597C240.789 175.697 288.747 227.77 326.279 283.692C340.381 304.703 353.024 326.279 364.932 346.6C368.869 353.32 372.727 359.903 376.53 366.282C391.845 391.974 406.273 414.358 421.553 429.258L421.659 429.362L421.692 429.507C432.692 478.703 455.431 509.319 484.824 526.695C514.232 544.081 550.37 548.256 588.233 544.422C663.969 536.754 746.4 497.066 795.066 467.473L795.586 468.328C746.871 497.95 664.289 537.727 588.333 545.417C550.351 549.263 513.973 545.09 484.315 527.556C454.67 510.03 431.809 479.197 420.749 429.87C405.401 414.867 390.945 392.418 375.671 366.794C371.86 360.402 367.997 353.81 364.056 347.085C352.152 326.77 339.532 305.232 325.448 284.249C287.96 228.391 240.199 176.604 168.34 162.58C103.168 152.164 36.9036 176.837 -22.9181 214.669Z" fill="url(#paint10_linear_182_91429)"/>
<path fill-rule="evenodd" clip-rule="evenodd" d="M-15.4514 202.434C-77.9334 240.743 -134.256 291.921 -176.291 334.659L-177.004 333.958C-134.943 291.193 -78.5551 239.951 -15.9741 201.581C46.5989 163.217 115.427 137.682 182.347 146.435L182.355 146.436L182.364 146.438C255.421 158.487 305.378 207.27 343.608 263.04C362.724 290.926 378.92 320.577 393.61 348.28C395.695 352.212 397.75 356.105 399.778 359.947C412.045 383.188 423.345 404.597 434.587 421.867L434.648 421.96L434.663 422.069C443.026 479.917 464.53 515.337 493.646 534.78C522.772 554.23 559.616 557.759 598.796 551.607C677.17 539.3 764.619 488.297 817.482 449.252L818.076 450.056C765.169 489.133 677.564 540.25 598.952 552.595C559.638 558.768 522.506 555.255 493.091 535.612C463.684 515.975 442.09 480.285 433.689 422.321C422.44 405.024 411.133 383.603 398.891 360.409C396.863 356.567 394.81 352.677 392.727 348.749C378.038 321.049 361.865 291.442 342.783 263.605C304.619 207.932 254.869 159.413 182.209 147.426C115.621 138.719 47.036 164.122 -15.4514 202.434Z" fill="url(#paint11_linear_182_91429)"/>
<path fill-rule="evenodd" clip-rule="evenodd" d="M-7.98488 190.302C-73.132 229.09 -132.467 280.501 -177.306 323.967L-178.002 323.249C-133.136 279.757 -73.7379 228.287 -8.49648 189.443C56.7366 150.603 127.871 124.349 196.188 131.381L196.196 131.382L196.204 131.383C270.05 141.382 322.007 186.874 360.936 242.492C395.345 291.651 419.61 348.773 439.83 396.372C442.482 402.615 445.065 408.695 447.592 414.571L447.624 414.645L447.631 414.726C453.353 481.227 473.619 521.458 502.466 542.97C531.313 564.482 568.863 567.367 609.362 558.896C690.377 541.95 782.845 479.631 839.908 431.131L840.555 431.893C783.458 480.422 690.833 542.877 609.567 559.875C568.925 568.375 531.038 565.524 501.868 543.772C472.71 522.028 452.385 481.488 446.641 414.892C444.123 409.034 441.549 402.977 438.908 396.759C418.683 349.151 394.461 292.132 360.117 243.066C321.278 187.576 269.54 142.324 196.078 132.375C128.074 125.378 57.1681 151.51 -7.98488 190.302Z" fill="url(#paint12_linear_182_91429)"/>
<path fill-rule="evenodd" clip-rule="evenodd" d="M-0.517548 178.279C-68.3297 217.547 -130.678 269.19 -178.32 313.383L-179 312.649C-131.33 268.431 -68.9206 216.733 -1.01866 177.413C66.8746 138.098 140.315 111.125 210.03 116.436L210.038 116.437L210.045 116.438C284.679 124.386 338.638 166.588 378.265 222.054C417.886 277.509 443.205 346.252 460.578 407.369L460.594 407.426L460.596 407.485C463.675 482.638 482.701 527.684 511.284 551.269C539.854 574.842 578.11 577.085 619.93 566.295C703.59 544.71 801.079 471.071 862.341 413.115L863.028 413.842C801.74 471.823 704.096 545.612 620.18 567.263C578.212 578.091 539.57 575.904 510.648 552.04C481.747 528.193 462.69 482.812 459.6 407.586C442.239 346.523 416.961 277.935 377.452 222.635C337.938 167.33 284.213 125.345 209.947 117.433C140.527 112.147 67.3008 139.007 -0.517548 178.279Z" fill="url(#paint13_linear_182_91429)"/>
<path fill-rule="evenodd" clip-rule="evenodd" d="M6.94957 166.375C-63.5275 206.122 -128.889 257.997 -179.334 302.917L-179.999 302.171C-129.525 257.225 -64.1042 205.299 6.45833 165.504C77.0122 125.714 152.76 98.0202 223.872 101.612L223.886 101.612L223.886 101.613C299.307 107.511 355.267 146.423 395.594 201.735C435.912 257.034 460.611 328.735 473.553 400.274L473.56 400.317L473.561 400.36C473.993 484.162 491.777 534.027 520.1 559.687C548.395 585.321 587.357 586.923 630.5 573.814C673.639 560.706 720.841 532.917 765.456 499.961C810.066 467.008 852.059 428.911 884.778 395.216L885.496 395.913C852.745 429.641 810.711 467.775 766.05 500.765C721.396 533.75 674.088 561.615 630.791 574.771C587.498 587.926 548.101 586.405 519.429 560.428C490.79 534.482 473 484.264 472.561 400.409C459.634 328.972 434.976 257.449 394.786 202.324C354.598 147.202 298.886 108.483 223.815 102.61C152.98 99.0347 77.433 126.624 6.94957 166.375Z" fill="url(#paint14_linear_182_91429)"/>
<path fill-rule="evenodd" clip-rule="evenodd" d="M14.4174 154.598C-58.7246 194.824 -127.099 246.931 -180.347 292.579L-180.998 291.82C-127.72 246.146 -59.2877 193.992 13.9355 153.722C87.1501 113.456 165.205 85.0421 237.715 86.9145L237.727 86.9148V86.915C313.933 90.7638 371.897 126.385 412.923 181.543C453.938 236.687 478.017 311.344 486.522 393.295L486.526 393.327L486.525 393.359C484.31 485.807 500.849 540.495 528.915 568.232C556.936 595.926 596.605 596.89 641.072 581.46C685.534 566.033 734.654 534.254 781.382 496.703C828.103 459.157 872.401 415.865 907.219 377.442L907.96 378.114C873.114 416.568 828.777 459.898 782.008 497.482C735.246 535.061 686.021 566.922 641.4 582.405C596.785 597.886 556.633 597.033 528.212 568.944C499.838 540.901 483.313 485.85 485.524 393.366C477.028 311.544 452.99 237.088 412.12 182.14C371.257 127.2 313.561 91.7481 237.683 87.914C165.433 86.0501 87.5658 114.368 14.4174 154.598Z" fill="url(#paint15_linear_182_91429)"/>
<path fill-rule="evenodd" clip-rule="evenodd" d="M21.8858 142.959C-53.9209 183.664 -125.308 236.003 -181.36 282.378L-181.997 281.607C-125.914 235.207 -54.4712 182.825 21.4127 142.078C97.2883 101.336 177.65 72.2023 251.558 72.3561L251.569 72.3561L251.569 72.3562C328.56 74.1562 388.528 106.486 430.252 161.49C471.964 216.477 495.42 294.092 499.489 386.447L499.49 386.47L499.489 386.493C494.627 487.586 509.919 547.098 537.728 576.916C565.478 606.669 605.854 606.996 651.647 589.246C697.432 571.498 748.47 535.729 797.31 493.582C846.143 451.442 892.746 402.955 929.663 359.805L930.423 360.455C893.48 403.635 846.841 452.16 797.963 494.339C749.093 536.512 697.953 572.369 652.008 590.178C606.071 607.984 565.166 607.8 536.997 577.598C508.891 547.462 493.629 487.581 498.489 386.469C494.423 294.252 471.003 216.865 429.455 162.094C387.917 107.336 328.237 75.1504 251.551 73.3561C177.886 73.2042 97.6991 102.251 21.8858 142.959Z" fill="url(#paint16_linear_182_91429)"/>
<path fill-rule="evenodd" clip-rule="evenodd" d="M265.418 58.8863C190.338 60.4471 107.832 90.2217 29.3539 131.409C-49.1175 172.593 -123.518 225.164 -182.372 272.265L-182.997 271.484C-124.11 224.357 -49.6555 171.746 28.8892 130.523C107.426 89.3054 190.095 59.4508 265.401 57.8864L265.41 57.8863C343.184 57.6383 405.157 86.6762 447.581 141.525C489.99 196.356 512.821 276.927 512.454 379.682L512.454 379.698L512.453 379.715C508.699 434.562 510.328 478.086 516.347 511.89C522.367 545.696 532.771 569.747 546.54 585.687C560.296 601.613 577.437 609.473 597.016 610.86C616.611 612.248 638.668 607.153 662.222 597.119C709.332 577.051 762.288 537.291 813.24 490.549C864.184 443.815 913.093 390.132 952.108 342.254L952.883 342.886C913.844 390.793 864.902 444.513 813.916 491.286C762.937 538.052 709.881 577.904 662.614 598.039C638.979 608.107 616.756 613.261 596.945 611.858C577.116 610.453 559.723 602.479 545.783 586.341C531.855 570.217 521.4 545.973 515.363 512.065C509.325 478.157 507.698 434.551 511.454 379.662C511.818 277.048 489.014 196.729 446.79 142.137C404.577 87.5603 342.913 58.6402 265.418 58.8863Z" fill="url(#paint17_linear_182_91429)"/>
<path fill-rule="evenodd" clip-rule="evenodd" d="M279.285 44.5534C202.791 47.8273 117.965 78.3297 36.8226 119.995C-44.3134 161.658 -121.727 214.46 -183.384 262.289L-183.997 261.499C-122.306 213.644 -44.8398 160.804 36.3658 119.106C117.564 77.4117 202.541 46.8362 279.246 43.5542L279.253 43.5539C357.809 41.2585 421.788 67.0045 464.91 121.698C508.017 176.372 530.221 259.898 525.418 373.05L525.417 373.061L525.416 373.071C520.339 432.238 520.993 479.129 526.337 515.481C531.681 551.838 541.71 577.616 555.35 594.595C568.976 611.557 586.228 619.768 606.11 620.963C626.015 622.159 648.582 616.324 672.799 605.13C721.234 582.741 776.108 538.989 829.172 487.652C882.228 436.323 933.441 377.445 974.555 324.84L975.343 325.456C934.207 378.089 882.963 437.003 829.867 488.371C776.78 539.73 721.808 583.577 673.219 606.038C648.923 617.268 626.183 623.171 606.05 621.961C585.896 620.75 568.379 612.411 554.571 595.222C540.777 578.05 530.706 552.077 525.348 515.627C519.989 479.174 519.339 432.203 524.419 372.997C529.216 259.98 507.026 176.731 464.124 122.317C421.237 67.9208 357.59 42.2662 279.285 44.5534Z" fill="url(#paint18_linear_182_91429)"/>
<path fill-rule="evenodd" clip-rule="evenodd" d="M481.458 102.742C437.896 48.5258 372.266 26.1364 293.151 30.4657C215.243 35.453 128.098 66.6832 44.2908 108.827C-39.5098 150.968 -119.936 204.002 -184.396 252.558L-184.998 251.759C-120.502 203.177 -40.025 150.108 43.8415 107.934C127.701 65.7635 214.986 34.4669 293.09 29.4676L293.094 29.4673C372.433 25.1253 438.418 47.5789 482.238 102.116C526.043 156.633 547.62 243.114 538.381 366.66L538.38 366.672C531.979 430.158 531.658 480.415 536.325 519.317C540.994 558.224 550.647 585.729 564.159 603.749C577.655 621.746 595.017 630.308 615.205 631.311C635.419 632.315 658.497 625.741 683.377 613.386C733.137 588.676 789.929 540.931 845.104 485C900.272 429.076 953.79 365.002 997.002 307.67L997.8 308.272C954.568 365.631 901.021 429.741 845.816 485.702C790.62 541.655 733.733 589.496 683.822 614.282C658.866 626.675 635.61 633.326 615.155 632.31C594.675 631.292 577.035 622.587 563.359 604.348C549.699 586.131 540.011 558.429 535.332 519.436C530.653 480.438 530.979 430.103 537.384 366.58C546.613 243.158 525.037 156.978 481.458 102.742Z" fill="url(#paint19_linear_182_91429)"/>
<path fill-rule="evenodd" clip-rule="evenodd" d="M498.793 83.4365C454.555 29.3995 386.944 10.2749 307.017 16.647C227.695 23.3483 138.231 55.3059 51.7595 97.9284C-34.7056 140.548 -118.144 193.813 -185.408 243.096L-185.999 242.289C-118.699 192.98 -35.2102 139.682 51.3174 97.0314C137.838 54.3846 227.432 22.3666 306.934 15.6504L306.937 15.6503C387.056 9.26254 455.048 28.4234 499.567 82.803C544.069 137.162 565.017 226.598 551.344 360.536L551.343 360.542C543.618 428.345 542.322 481.97 546.313 523.42C550.306 564.877 559.583 594.11 572.967 613.17C586.333 632.205 603.808 641.118 624.3 641.929C644.823 642.741 668.412 635.428 693.956 621.911C745.041 594.88 803.752 543.142 861.039 482.616C918.317 422.098 974.14 352.828 1019.45 290.768L1020.26 291.358C974.928 353.444 919.079 422.748 861.765 483.303C804.459 543.849 745.658 595.685 694.424 622.795C668.808 636.35 645.035 643.75 624.26 642.928C603.454 642.104 585.692 633.033 572.149 613.745C558.623 594.482 549.318 565.052 545.318 523.516C541.318 481.972 542.62 428.273 550.349 360.43C564.011 226.605 543.048 137.494 498.793 83.4365Z" fill="url(#paint20_linear_182_91429)"/>
<defs>
<linearGradient id="paint0_linear_182_91429" x1="-110.5" y1="-38" x2="1334" y2="703.5" gradientUnits="userSpaceOnUse">
<stop stop-color="#E6E6E6" stop-opacity="0"/>
<stop offset="0.417156" stop-color="#E6E6E6"/>
<stop offset="0.777131" stop-color="#E6E6E6" stop-opacity="0"/>
</linearGradient>
<linearGradient id="paint1_linear_182_91429" x1="-119.722" y1="269.29" x2="711.016" y2="767.197" gradientUnits="userSpaceOnUse">
<stop stop-color="#E6E6E6" stop-opacity="0"/>
<stop offset="0.417156" stop-color="#E6E6E6"/>
<stop offset="0.777131" stop-color="#E6E6E6" stop-opacity="0"/>
</linearGradient>
<linearGradient id="paint2_linear_182_91429" x1="-119.26" y1="255.073" x2="717.161" y2="778.468" gradientUnits="userSpaceOnUse">
<stop stop-color="#E6E6E6" stop-opacity="0"/>
<stop offset="0.417156" stop-color="#E6E6E6"/>
<stop offset="0.777131" stop-color="#E6E6E6" stop-opacity="0"/>
</linearGradient>
<linearGradient id="paint3_linear_182_91429" x1="-118.797" y1="240.853" x2="721.802" y2="789.498" gradientUnits="userSpaceOnUse">
<stop stop-color="#E6E6E6" stop-opacity="0"/>
<stop offset="0.417156" stop-color="#E6E6E6"/>
<stop offset="0.777131" stop-color="#E6E6E6" stop-opacity="0"/>
</linearGradient>
<linearGradient id="paint4_linear_182_91429" x1="-118.337" y1="226.628" x2="724.974" y2="800.18" gradientUnits="userSpaceOnUse">
<stop stop-color="#E6E6E6" stop-opacity="0"/>
<stop offset="0.417156" stop-color="#E6E6E6"/>
<stop offset="0.777131" stop-color="#E6E6E6" stop-opacity="0"/>
</linearGradient>
<linearGradient id="paint5_linear_182_91429" x1="-117.879" y1="212.4" x2="726.698" y2="810.431" gradientUnits="userSpaceOnUse">
<stop stop-color="#E6E6E6" stop-opacity="0"/>
<stop offset="0.417156" stop-color="#E6E6E6"/>
<stop offset="0.777131" stop-color="#E6E6E6" stop-opacity="0"/>
</linearGradient>
<linearGradient id="paint6_linear_182_91429" x1="-117.424" y1="198.168" x2="726.98" y2="820.197" gradientUnits="userSpaceOnUse">
<stop stop-color="#E6E6E6" stop-opacity="0"/>
<stop offset="0.417156" stop-color="#E6E6E6"/>
<stop offset="0.777131" stop-color="#E6E6E6" stop-opacity="0"/>
</linearGradient>
<linearGradient id="paint7_linear_182_91429" x1="-116.968" y1="183.727" x2="732.808" y2="827.352" gradientUnits="userSpaceOnUse">
<stop stop-color="#E6E6E6" stop-opacity="0"/>
<stop offset="0.417156" stop-color="#E6E6E6"/>
<stop offset="0.777131" stop-color="#E6E6E6" stop-opacity="0"/>
</linearGradient>
<linearGradient id="paint8_linear_182_91429" x1="-116.497" y1="168.173" x2="774.382" y2="823.02" gradientUnits="userSpaceOnUse">
<stop stop-color="#E6E6E6" stop-opacity="0"/>
<stop offset="0.417156" stop-color="#E6E6E6"/>
<stop offset="0.777131" stop-color="#E6E6E6" stop-opacity="0"/>
</linearGradient>
<linearGradient id="paint9_linear_182_91429" x1="-116.029" y1="152.445" x2="820.31" y2="816.4" gradientUnits="userSpaceOnUse">
<stop stop-color="#E6E6E6" stop-opacity="0"/>
<stop offset="0.417156" stop-color="#E6E6E6"/>
<stop offset="0.777131" stop-color="#E6E6E6" stop-opacity="0"/>
</linearGradient>
<linearGradient id="paint10_linear_182_91429" x1="-115.564" y1="136.661" x2="866.578" y2="808.728" gradientUnits="userSpaceOnUse">
<stop stop-color="#E6E6E6" stop-opacity="0"/>
<stop offset="0.417156" stop-color="#E6E6E6"/>
<stop offset="0.777131" stop-color="#E6E6E6" stop-opacity="0"/>
</linearGradient>
<linearGradient id="paint11_linear_182_91429" x1="-115.1" y1="120.847" x2="912.334" y2="800.395" gradientUnits="userSpaceOnUse">
<stop stop-color="#E6E6E6" stop-opacity="0"/>
<stop offset="0.417156" stop-color="#E6E6E6"/>
<stop offset="0.777131" stop-color="#E6E6E6" stop-opacity="0"/>
</linearGradient>
<linearGradient id="paint12_linear_182_91429" x1="-114.638" y1="105.015" x2="957.349" y2="791.603" gradientUnits="userSpaceOnUse">
<stop stop-color="#E6E6E6" stop-opacity="0"/>
<stop offset="0.417156" stop-color="#E6E6E6"/>
<stop offset="0.777131" stop-color="#E6E6E6" stop-opacity="0"/>
</linearGradient>
<linearGradient id="paint13_linear_182_91429" x1="-114.176" y1="89.1685" x2="1001.59" y2="782.477" gradientUnits="userSpaceOnUse">
<stop stop-color="#E6E6E6" stop-opacity="0"/>
<stop offset="0.417156" stop-color="#E6E6E6"/>
<stop offset="0.777131" stop-color="#E6E6E6" stop-opacity="0"/>
</linearGradient>
<linearGradient id="paint14_linear_182_91429" x1="-113.715" y1="73.3112" x2="1045.09" y2="773.1" gradientUnits="userSpaceOnUse">
<stop stop-color="#E6E6E6" stop-opacity="0"/>
<stop offset="0.417156" stop-color="#E6E6E6"/>
<stop offset="0.777131" stop-color="#E6E6E6" stop-opacity="0"/>
</linearGradient>
<linearGradient id="paint15_linear_182_91429" x1="-113.254" y1="57.4421" x2="1087.9" y2="763.529" gradientUnits="userSpaceOnUse">
<stop stop-color="#E6E6E6" stop-opacity="0"/>
<stop offset="0.417156" stop-color="#E6E6E6"/>
<stop offset="0.777131" stop-color="#E6E6E6" stop-opacity="0"/>
</linearGradient>
<linearGradient id="paint16_linear_182_91429" x1="-112.794" y1="41.5626" x2="1130.1" y2="753.803" gradientUnits="userSpaceOnUse">
<stop stop-color="#E6E6E6" stop-opacity="0"/>
<stop offset="0.417156" stop-color="#E6E6E6"/>
<stop offset="0.777131" stop-color="#E6E6E6" stop-opacity="0"/>
</linearGradient>
<linearGradient id="paint17_linear_182_91429" x1="-112.334" y1="25.6772" x2="1171.68" y2="743.996" gradientUnits="userSpaceOnUse">
<stop stop-color="#E6E6E6" stop-opacity="0"/>
<stop offset="0.417156" stop-color="#E6E6E6"/>
<stop offset="0.777131" stop-color="#E6E6E6" stop-opacity="0"/>
</linearGradient>
<linearGradient id="paint18_linear_182_91429" x1="-111.875" y1="9.78153" x2="1212.74" y2="734.097" gradientUnits="userSpaceOnUse">
<stop stop-color="#E6E6E6" stop-opacity="0"/>
<stop offset="0.417156" stop-color="#E6E6E6"/>
<stop offset="0.777131" stop-color="#E6E6E6" stop-opacity="0"/>
</linearGradient>
<linearGradient id="paint19_linear_182_91429" x1="-111.417" y1="-6.12843" x2="1253.45" y2="724.05" gradientUnits="userSpaceOnUse">
<stop stop-color="#E6E6E6" stop-opacity="0"/>
<stop offset="0.417156" stop-color="#E6E6E6"/>
<stop offset="0.777131" stop-color="#E6E6E6" stop-opacity="0"/>
</linearGradient>
<linearGradient id="paint20_linear_182_91429" x1="-110.958" y1="-22.0559" x2="1293.86" y2="713.85" gradientUnits="userSpaceOnUse">
<stop stop-color="#E6E6E6" stop-opacity="0"/>
<stop offset="0.417156" stop-color="#E6E6E6"/>
<stop offset="0.777131" stop-color="#E6E6E6" stop-opacity="0"/>
</linearGradient>
</defs>
</svg>
