<svg width="35" height="35" viewBox="0 0 35 35" fill="none" xmlns="http://www.w3.org/2000/svg">
<path fill-rule="evenodd" clip-rule="evenodd" d="M31.5 17.5C31.5 25.232 25.232 31.5 17.5 31.5C9.76801 31.5 3.5 25.232 3.5 17.5C3.5 9.76801 9.76801 3.5 17.5 3.5C25.232 3.5 31.5 9.76801 31.5 17.5ZM22.515 12.7283C22.515 10.0573 20.2602 7.875 17.5004 7.875C14.7407 7.875 12.4859 10.0573 12.4859 12.7283C12.4859 15.3992 14.7407 17.5815 17.5004 17.5815C20.2601 17.5815 22.515 15.3992 22.515 12.7283ZM10.3039 25.146C9.33567 24.2344 9.26089 22.7348 10.1466 21.7428C10.8191 20.9896 11.6974 20.2806 12.6204 20.2806H22.3802C23.7178 20.2806 24.7245 20.9545 25.4012 21.9674C25.9982 22.861 25.7792 24.0472 25.0302 24.8179C23.1223 26.7806 20.4537 28 17.5003 28C14.7152 28 12.1833 26.9156 10.3039 25.146Z" fill="#1751D0"/>
</svg>
