<svg width="95" height="35" viewBox="0 0 95 35" fill="none" xmlns="http://www.w3.org/2000/svg">
<path d="M17.5007 3.5C9.85021 3.5 3.64648 9.85963 3.64648 17.7049C3.64648 23.9811 7.61613 29.3056 13.1209 31.1839C13.8132 31.3154 14.0675 30.8758 14.0675 30.5006C14.0675 30.1619 14.0546 29.0428 14.0487 27.8559C10.1943 28.7152 9.38104 26.1799 9.38104 26.1799C8.75083 24.538 7.84279 24.1015 7.84279 24.1015C6.58585 23.2198 7.93754 23.2379 7.93754 23.2379C9.32877 23.3381 10.0613 24.7018 10.0613 24.7018C11.297 26.8734 13.3023 26.2455 14.0929 25.8827C14.2172 24.9645 14.5763 24.3379 14.9725 23.9832C11.8953 23.6239 8.66043 22.4059 8.66043 16.963C8.66043 15.4122 9.20165 14.145 10.088 13.1502C9.94409 12.7924 9.46992 11.3477 10.2221 9.39106C10.2221 9.39106 11.3855 9.00927 14.033 10.8471C15.1381 10.5323 16.3233 10.3746 17.5007 10.3692C18.6781 10.3746 19.8642 10.5323 20.9714 10.8471C23.6158 9.00927 24.7775 9.39106 24.7775 9.39106C25.5316 11.3477 25.0572 12.7924 24.9133 13.1502C25.8016 14.145 26.3391 15.4121 26.3391 16.963C26.3391 22.4188 23.0981 23.6202 20.0132 23.9718C20.51 24.4127 20.9528 25.2772 20.9528 26.6023C20.9528 28.5029 20.9367 30.0327 20.9367 30.5006C20.9367 30.8786 21.1861 31.3215 21.8885 31.182C27.3902 29.3016 31.3548 23.9789 31.3548 17.7049C31.3548 9.85963 25.152 3.5 17.5007 3.5Z" fill="#4F4D55"/>
<path d="M48.9625 20.1948C48.9625 21.2415 48.9366 22.29 48.9759 23.3349C48.9919 23.7777 48.8233 23.9881 48.463 24.1612C46.9851 24.869 45.4305 25.0941 43.8189 24.9647C42.7281 24.8736 41.6738 24.6604 40.7133 24.0911C39.2862 23.2484 38.5397 21.9193 38.2159 20.3341C37.7807 18.2243 37.8146 16.1099 38.4344 14.0365C39.0936 11.8283 40.542 10.4991 42.7914 10.142C44.396 9.88179 46.0367 9.98 47.6005 10.4299C47.7709 10.4782 47.9323 10.5583 48.1 10.6212C48.3373 10.7123 48.4042 10.8708 48.3408 11.1213C48.1839 11.7372 48.0331 12.3548 47.8949 12.9761C47.8271 13.2877 47.6906 13.3542 47.391 13.2603C46.2797 12.9114 45.1074 12.8132 43.9553 12.9725C42.7441 13.1346 41.8692 13.7687 41.4785 14.963C40.9147 16.6589 40.9194 18.4982 41.4919 20.1911C41.9048 21.4474 42.8297 22.0696 44.1391 22.0905C44.614 22.1125 45.0898 22.0903 45.5608 22.024C45.7748 21.9885 45.8694 21.9229 45.8649 21.6851C45.8524 20.9418 45.8488 20.1975 45.8649 19.455C45.872 19.1708 45.7525 19.1307 45.5215 19.138C45.0907 19.1517 44.659 19.1316 44.2291 19.1444C43.933 19.1535 43.7912 19.0533 43.7993 18.7281C43.8153 18.0904 43.8117 17.4527 43.7993 16.815C43.7939 16.5144 43.9223 16.4196 44.2024 16.4215C45.6437 16.4297 47.085 16.4324 48.5255 16.4215C48.8537 16.4215 48.9714 16.5344 48.9652 16.8715C48.9536 17.9792 48.9625 19.087 48.9625 20.1948Z" fill="#4F4D55"/>
<path d="M73.5691 17.673C73.5691 19.842 73.5593 22.012 73.578 24.1811C73.578 24.6065 73.4478 24.7422 73.0429 24.7277C72.3454 24.7012 71.6462 24.704 70.9487 24.7277C70.5794 24.7404 70.4564 24.6129 70.4599 24.233C70.4769 22.5185 70.4599 20.804 70.4796 19.0896C70.4849 18.7033 70.3663 18.6131 70.0042 18.6204C68.7858 18.6432 67.5675 18.6368 66.3474 18.6204C66.0584 18.6204 65.9674 18.6997 65.9701 19.0048C65.9844 20.7357 65.9701 22.4666 65.9844 24.1929C65.9844 24.5846 65.8791 24.7395 65.4822 24.7258C64.7544 24.7022 64.0266 24.7113 63.2988 24.7258C63 24.7304 62.8761 24.6347 62.877 24.3077C62.8841 19.8621 62.8841 15.4168 62.877 10.9718C62.877 10.6475 63.0036 10.5436 63.2988 10.5472C64.0418 10.5554 64.7847 10.5627 65.5286 10.5472C65.8854 10.5381 65.987 10.6957 65.9844 11.0383C65.9728 12.4958 65.9897 13.9534 65.9719 15.411C65.9719 15.7426 66.0397 15.8519 66.383 15.8455C67.6156 15.8228 68.8492 15.8264 70.0818 15.8455C70.393 15.8455 70.4822 15.7645 70.4787 15.4438C70.4617 13.9862 70.4787 12.5286 70.4635 11.0711C70.4581 10.6693 70.5928 10.5354 70.979 10.5482C71.6765 10.5709 72.3757 10.5728 73.0732 10.5482C73.4719 10.5336 73.5807 10.6921 73.578 11.0811C73.5611 13.2729 73.5682 15.473 73.5691 17.673Z" fill="#4F4D55"/>
<path d="M87.9977 24.028C87.7783 24.7186 87.7783 24.7186 87.0523 24.7186C86.725 24.7186 86.3959 24.6921 86.0712 24.724C85.6609 24.7641 85.5628 24.5773 85.5691 24.1956C85.5869 23.1799 85.5753 22.1632 85.5753 21.1475C85.5753 17.7951 85.5807 14.4426 85.5664 11.0902C85.5664 10.6748 85.6868 10.5245 86.1015 10.5436C86.8151 10.5709 87.5286 10.5591 88.2421 10.5436C88.5659 10.5372 88.6881 10.6611 88.6881 10.9991C88.6738 12.3027 88.6881 13.6082 88.6774 14.9118C88.6774 15.2634 88.689 15.4165 89.1001 15.2151C90.0072 14.7715 90.9829 14.6804 91.9721 14.817C93.3902 15.0129 94.3445 15.9594 94.7013 17.6129C95.0397 19.2069 94.9934 20.8611 94.5666 22.4329C94.0645 24.346 92.8015 25.1112 90.6556 24.9673C89.7016 24.9114 88.7815 24.5863 87.9977 24.028ZM88.6221 19.8748C88.6221 20.5125 88.6301 21.1502 88.6176 21.7879C88.6132 22.0029 88.6934 22.1113 88.8852 22.1942C89.3775 22.4112 89.9124 22.5088 90.4478 22.4793C91.1827 22.4429 91.5181 22.1705 91.6902 21.4262C91.8394 20.7133 91.8854 19.9819 91.8267 19.2554C91.7009 17.1801 90.5183 16.9333 88.9414 17.5518C88.9281 17.5588 88.9144 17.5649 88.9003 17.57C88.6765 17.6311 88.6158 17.7823 88.6212 18.0119C88.6346 18.6313 88.6247 19.2526 88.6247 19.8748H88.6221Z" fill="#4F4D55"/>
<path d="M81.8815 24.061C81.0395 24.5165 80.219 24.8527 79.3217 24.9565C78.5522 25.0518 77.7718 24.9899 77.0259 24.7743C75.8709 24.4372 75.1529 23.5663 75.1173 22.2144C75.053 19.937 75.0896 17.6595 75.0798 15.382C75.0798 15.1443 75.1904 15.0586 75.4071 15.0586C76.2241 15.0586 77.0414 15.0586 77.859 15.0586C78.2291 15.0586 78.1917 15.3256 78.1917 15.5688C78.1917 17.3598 78.1917 19.1514 78.1917 20.9436C78.1917 22.3101 78.7214 22.7355 80.0424 22.4121C80.1315 22.3912 80.2145 22.3657 80.2992 22.3383C80.9896 22.1115 80.9904 22.1106 80.9904 21.3608C80.9904 19.4341 80.9994 17.5056 80.9842 15.5788C80.9842 15.1898 81.0832 15.0322 81.4863 15.0513C82.1999 15.0805 82.9134 15.0723 83.6269 15.0513C83.9471 15.0441 84.0827 15.1424 84.0818 15.4895C84.0747 18.4193 84.0747 21.3487 84.0818 24.2778C84.0818 24.6231 83.9453 24.7333 83.626 24.7151C83.2848 24.69 82.9422 24.6919 82.6012 24.7206C82.1374 24.7789 81.8369 24.6659 81.8815 24.061Z" fill="#4F4D55"/>
<path d="M56.1884 19.9884C56.1884 19.3972 56.1884 18.8041 56.1884 18.2138C56.183 17.5169 56.2775 17.6089 55.6095 17.5998C55.3865 17.5998 55.1636 17.5916 54.9415 17.5998C54.6739 17.6098 54.5713 17.4841 54.5785 17.2144C54.591 16.7595 54.591 16.304 54.5785 15.8479C54.5722 15.6102 54.6498 15.4699 54.8889 15.4407C54.9476 15.4322 55.0055 15.4184 55.0619 15.3997C55.4258 15.2831 55.9368 15.356 56.1322 15.0618C56.3052 14.7949 56.1893 14.333 56.1928 13.9522C56.1928 13.5277 56.2071 13.1022 56.1928 12.6768C56.1812 12.4099 56.2481 12.2896 56.5344 12.2951C57.3211 12.3085 58.1083 12.3085 58.8962 12.2951C59.1825 12.2896 59.2458 12.4126 59.2396 12.6768C59.2244 13.238 59.2396 13.7991 59.2396 14.3612C59.2396 15.0445 59.2396 15.0445 59.9335 15.0445C60.3054 15.0445 60.6764 15.0545 61.0475 15.0445C61.3552 15.0335 61.4702 15.1602 61.4604 15.4763C61.4426 16.0365 61.4408 16.5986 61.4604 17.1598C61.4729 17.5069 61.3275 17.6153 61.0145 17.6052C60.5248 17.5916 60.0334 17.6107 59.5446 17.597C59.3145 17.5907 59.2351 17.6663 59.2378 17.9068C59.2485 19.0911 59.2378 20.2753 59.2467 21.4596C59.2521 22.0336 59.5696 22.387 60.1448 22.449C60.4714 22.4746 60.7994 22.4746 61.1259 22.449C61.3641 22.4371 61.4907 22.5073 61.4827 22.7733C61.4732 23.3199 61.4732 23.8665 61.4827 24.413C61.4827 24.618 61.3989 24.7082 61.2151 24.7583C60.1252 25.0462 59.0353 25.0808 57.9686 24.6936C56.7413 24.2472 56.2811 23.2361 56.2196 21.9953C56.1857 21.3294 56.2133 20.6607 56.2133 19.9911L56.1884 19.9884Z" fill="#4F4D55"/>
<path d="M53.7063 19.8663C53.7063 21.3084 53.6974 22.7505 53.7125 24.1917C53.7125 24.5852 53.5832 24.7382 53.1952 24.7255C52.512 24.7045 51.8279 24.71 51.1438 24.7255C50.7755 24.7328 50.6007 24.6025 50.6016 24.1989C50.6105 21.3002 50.6105 18.4011 50.6016 15.5017C50.6016 15.1711 50.7139 15.0381 51.0475 15.0463C51.7908 15.0614 52.534 15.0614 53.2773 15.0463C53.6109 15.0381 53.7161 15.1702 53.7125 15.5017C53.6991 16.952 53.7063 18.4096 53.7063 19.8663Z" fill="#4F4D55"/>
</svg>
