<svg width="174" height="40" viewBox="0 0 174 40" fill="none" xmlns="http://www.w3.org/2000/svg">
<path d="M57.7314 9.34801V11.6868V14.0236V16.3636V18.7004L59.2551 16.3544V14.0176V11.6788V9.34072V7.00195L57.7314 9.34801Z" fill="url(#paint0_radial_314_7083)"/>
<path d="M54.6978 16.361L53.1768 18.703V21.0418V23.3826V25.7187V28.0594L54.6978 25.7153L56.2785 23.281V20.9423V18.6042V16.2654V13.9267V11.5879L54.6978 14.0222V16.361Z" fill="url(#paint1_radial_314_7083)"/>
<path d="M48.6211 4.67355V7.01165V9.35041V11.6892V14.0279V16.366V18.7048V21.0436V23.3823V25.7184V28.0592V30.398V32.7347V35.0748V37.4116V39.7523L50.2012 37.318L51.6559 35.0788V32.738V30.4013V28.0612V25.7244V23.3837V21.0456V18.7068V16.368V14.0293V11.6932V9.35439V7.01563V4.67686V2.33876V0L50.2012 2.23924L48.6211 4.67355Z" fill="url(#paint2_radial_314_7083)"/>
<path d="M44.123 4.58527V6.92204V9.2608V11.5996V13.9377V16.2764V18.6152V20.954V23.2921V25.6308V27.9676V30.3064V32.6445V34.9832V37.324V39.6607L45.5777 37.4208L47.0988 35.0788V32.74V30.4012V28.0631V25.7244V23.3856V21.0475V18.7087V16.37V14.0312V11.6931V9.35634V7.01559V4.67882V2.34072V0.00195312L45.5777 2.34403L44.123 4.58527Z" fill="url(#paint3_radial_314_7083)"/>
<path d="M39.5195 9.38439V11.7232V14.0619V16.4007V18.7368V21.0756V23.4143V25.7531L42.5622 21.0683V18.7295V16.3907V14.052V11.7139V9.37511V7.03833V4.69824L41.0412 7.04231L39.5195 9.38439Z" fill="url(#paint4_radial_314_7083)"/>
<path d="M36.4673 14.039V11.7002L34.9463 14.0429V16.381V18.7198V21.0586V23.3973V25.7354V28.0742V30.413V32.7497L36.4673 30.407L38.048 27.9733V25.6366V23.2978V20.959V18.6203V16.2822V13.9434L36.4673 16.3777V14.039Z" fill="url(#paint5_radial_314_7083)"/>
<path d="M30.3877 4.69534V7.03212V9.37287V11.7116V14.0497V16.3885V18.7273V21.064V23.4021V25.7409V28.0797V30.4178V32.7565V35.0953V37.434V39.7708L31.9678 37.3365L33.4225 35.0973V32.7605V30.4198V28.0836V25.7449V23.4061V21.0674V18.7292V16.3905V14.0517V11.713V9.37486V7.03809V4.69932V2.35923V0.0224609L31.9678 2.2617L30.3877 4.69534Z" fill="url(#paint6_radial_314_7083)"/>
<path d="M25.8906 4.60378V6.94454V9.28131V11.6214V13.9582V16.2989V18.637V20.9758V23.3126V25.6513V27.9901V30.3282V32.667V35.0057V37.3425V39.6826L27.3447 37.4433L28.8663 35.0993V32.7605V30.4237V28.0836V25.7469V23.4081V21.0693V18.7306V16.3925V14.0537V11.7149V9.37486V7.03809V4.69932V2.36056V0.0224609L27.3447 2.36454L25.8906 4.60378Z" fill="url(#paint7_radial_314_7083)"/>
<path d="M21.2676 11.7229V14.061V16.3998V18.7386V21.0753V23.4154V25.7542V28.093V30.4317L22.7886 28.087V25.7502L24.3103 23.4081V21.0674V18.7306V16.3905V14.0538V11.713V9.37622V7.03613L22.7886 9.37821L21.2676 11.7229Z" fill="url(#paint8_radial_314_7083)"/>
<path d="M18.2349 14.0603V11.7195V9.38275V7.04199L16.7139 9.38673V11.7255V14.0616V16.4024V18.7391V21.0792V23.416V25.7567V28.0935V30.4336V32.7704L18.2349 30.4283L19.8156 27.994V25.6552V23.3171V20.9804V18.6396V16.3028V13.9627L18.2349 16.3964V14.0603Z" fill="url(#paint9_radial_314_7083)"/>
<path d="M12.1562 4.71194V7.04872V9.38947V11.7262V14.0663V16.4031V18.7439V21.08V23.4207V25.7575V28.0982V30.4344V32.7731V35.1119V37.4506V39.7887L13.7363 37.3551L15.191 35.1139V32.7771V30.4363V28.0996V25.7595V23.4227V21.084V18.7452V16.4071V14.0683V11.7296V9.39279V7.0527V4.71593V2.37517V0.0390625L13.7363 2.2783L12.1562 4.71194Z" fill="url(#paint10_radial_314_7083)"/>
<path d="M7.65918 4.62437V6.96512V9.30123V11.642V13.9788V16.3175V18.6556V20.9944V23.3312V25.6712V28.008V30.3488V32.6855V35.0256V37.3624V39.7032L9.11321 37.4619L10.6362 35.1172V32.7771V30.4403V28.0996V25.7635V23.4227V21.0859V18.7452V16.4091V14.0683V11.7316V9.39279V7.05469V4.71593V2.37915V0.0390625L9.11321 2.38512L7.65918 4.62437Z" fill="url(#paint11_radial_314_7083)"/>
<path d="M4.55521 21.0949L3.03418 23.4376V25.7744V28.1145V30.4512L4.55521 28.1092L6.10674 25.7186V23.3825V21.0418V18.705V16.3643L4.55521 18.7548V21.0949Z" fill="url(#paint12_radial_314_7083)"/>
<path d="M0 18.7575V21.0936L1.58006 18.6599V16.3232V13.9824L0 16.4167V18.7575Z" fill="url(#paint13_radial_314_7083)"/>
<path d="M80.3068 5.15831H77.3901L76.8336 6.50518H75.3438L78.1444 0.220703H79.5805L82.3897 6.50518H80.8634L80.3068 5.15831ZM79.8491 4.05428L78.8528 1.64851L77.8565 4.05428H79.8491Z" fill="black"/>
<path d="M89.6117 0.22039V6.50486H88.1756V1.40536H86.0217L85.9766 2.71573C85.9468 3.60745 85.8751 4.33064 85.761 4.88398C85.6476 5.43733 85.4579 5.86261 85.1912 6.15853C84.9252 6.4551 84.5531 6.60306 84.0742 6.60306C83.8765 6.60306 83.637 6.56988 83.3564 6.5042L83.446 5.27411C83.5236 5.29799 83.6098 5.30994 83.706 5.30994C84.0529 5.30994 84.2951 5.10492 84.433 4.69489C84.571 4.28486 84.6572 3.64328 84.6931 2.76948L84.7826 0.219727H89.6117V0.22039Z" fill="black"/>
<path d="M96.3502 2.79699C96.7601 3.13802 96.9644 3.64425 96.9644 4.31437C96.9644 5.02694 96.7382 5.56967 96.2871 5.94387C95.8354 6.31807 95.1993 6.50518 94.3794 6.50518H91.543V0.220703H92.9884V2.28545H94.5863C95.3525 2.28545 95.9402 2.45596 96.3502 2.79699ZM95.1833 5.14969C95.3956 4.96391 95.5017 4.6952 95.5017 4.34157C95.5017 3.68937 95.1004 3.36294 94.2991 3.36294H92.9884V5.42769H94.2991C94.6759 5.42769 94.9711 5.3348 95.1833 5.14969Z" fill="black"/>
<path d="M103.467 0.220703V6.50518H102.031V4.8352H100.703L99.5905 6.50518H98.0555L99.3662 4.61094C98.9411 4.43711 98.6154 4.1757 98.3878 3.82538C98.1603 3.47507 98.0469 3.05508 98.0469 2.56411C98.0469 2.07911 98.1577 1.66178 98.3785 1.31213C98.6001 0.961809 98.9139 0.692437 99.3211 0.504009C99.7278 0.315581 100.207 0.221367 100.757 0.221367H103.467V0.220703ZM99.8452 1.69296C99.6263 1.88471 99.5175 2.16868 99.5175 2.54553C99.5175 2.91045 99.6223 3.19176 99.8319 3.38948C100.042 3.5872 100.349 3.68539 100.757 3.68539H102.031V1.40568H100.792C100.379 1.40568 100.063 1.50188 99.8452 1.69296Z" fill="black"/>
<path d="M111.162 0.220703V6.50518H109.708V3.92822H106.853V6.50451H105.399V0.220703H106.853V2.69813H109.708V0.220703H111.162Z" fill="black"/>
<path d="M114.369 6.19508C113.852 5.91642 113.444 5.53094 113.149 5.03664C112.853 4.54302 112.704 3.98503 112.704 3.36202C112.704 2.73968 112.852 2.1817 113.149 1.68807C113.444 1.19444 113.852 0.808294 114.369 0.529633C114.886 0.251635 115.469 0.112305 116.115 0.112305C116.66 0.112305 117.151 0.207846 117.592 0.399591C118.031 0.591336 118.401 0.86668 118.7 1.22562L117.767 2.08748C117.341 1.59717 116.815 1.35168 116.187 1.35168C115.798 1.35168 115.451 1.43661 115.147 1.60779C114.841 1.7783 114.603 2.01649 114.433 2.32169C114.262 2.62689 114.177 2.97389 114.177 3.36335C114.177 3.75281 114.262 4.09981 114.433 4.40501C114.603 4.71021 114.841 4.9484 115.147 5.11892C115.452 5.28943 115.799 5.37502 116.187 5.37502C116.815 5.37502 117.342 5.12688 117.767 4.62993L118.7 5.49179C118.401 5.8567 118.03 6.13537 117.587 6.32645C117.144 6.51819 116.65 6.61373 116.106 6.61373C115.466 6.61241 114.886 6.47308 114.369 6.19508Z" fill="black"/>
<path d="M81.2838 14.9167C81.4875 15.1742 81.589 15.4913 81.589 15.8682C81.589 16.4248 81.378 16.8587 80.9561 17.1699C80.5343 17.4811 79.9313 17.637 79.1472 17.637H76.0508V11.3525H78.9767C79.7064 11.3525 80.2749 11.4932 80.6822 11.7745C81.0888 12.0558 81.2924 12.4566 81.2924 12.9774C81.2924 13.2886 81.2148 13.5626 81.059 13.7988C80.9031 14.0356 80.6848 14.2221 80.4036 14.3601C80.7877 14.4742 81.0808 14.6593 81.2838 14.9167ZM77.4969 13.9567H78.852C79.1691 13.9567 79.4086 13.8923 79.5698 13.7636C79.731 13.6349 79.8125 13.4452 79.8125 13.1937C79.8125 12.9482 79.7296 12.7598 79.5658 12.6284C79.4013 12.497 79.1631 12.4307 78.852 12.4307H77.4969V13.9567ZM80.1177 15.7521C80.1177 15.2312 79.7767 14.9712 79.0948 14.9712H77.4969V16.5602H79.0948C79.7767 16.5595 80.1177 16.2901 80.1177 15.7521Z" fill="black"/>
<path d="M87.5907 17.3269C87.0733 17.0483 86.6661 16.6628 86.3702 16.1685C86.0744 15.6749 85.9258 15.1169 85.9258 14.4939C85.9258 13.8715 86.0737 13.3135 86.3702 12.8199C86.6661 12.3263 87.0733 11.9401 87.5907 11.6615C88.1081 11.3835 88.6906 11.2441 89.3366 11.2441C89.8812 11.2441 90.3728 11.3397 90.8132 11.5314C91.253 11.7232 91.6225 11.9985 91.9217 12.3575L90.9884 13.2193C90.5632 12.729 90.0365 12.4835 89.4089 12.4835C89.0196 12.4835 88.6727 12.5684 88.3682 12.7396C88.063 12.9101 87.8249 13.1483 87.6544 13.4535C87.484 13.7587 87.399 14.1057 87.399 14.4952C87.399 14.8846 87.484 15.2316 87.6544 15.5368C87.8249 15.842 88.063 16.0802 88.3682 16.2508C88.6733 16.4213 89.0202 16.5069 89.4089 16.5069C90.0371 16.5069 90.5638 16.2587 90.9884 15.7618L91.9217 16.6236C91.6225 16.9885 91.2517 17.2672 90.8086 17.4583C90.3661 17.65 89.872 17.7456 89.3274 17.7456C88.6872 17.7442 88.1081 17.6056 87.5907 17.3269Z" fill="black"/>
<path d="M99.6912 16.4383C99.1261 16.914 98.3135 17.1787 97.2541 17.2331V17.9152H95.9168V17.2238C94.8515 17.1641 94.0363 16.8961 93.4705 16.4203C92.9053 15.9446 92.6221 15.2971 92.6221 14.477C92.6221 13.651 92.9053 13.0034 93.4705 12.5337C94.0363 12.0639 94.8515 11.7959 95.9168 11.7302V11.084H97.2541V11.7216C98.3135 11.7813 99.1261 12.0507 99.6912 12.5297C100.257 13.0087 100.54 13.6583 100.54 14.4777C100.54 15.3084 100.257 15.9625 99.6912 16.4383ZM95.9175 16.0926V12.8701C95.2767 12.9298 94.8024 13.0897 94.4947 13.3504C94.1869 13.6112 94.0323 13.9867 94.0323 14.477C94.0323 15.4225 94.6612 15.9612 95.9175 16.0926ZM98.673 15.6029C98.9841 15.3369 99.14 14.958 99.14 14.4671C99.14 13.5097 98.5111 12.9769 97.2548 12.8694V16.0919C97.8889 16.0329 98.3619 15.8697 98.673 15.6029Z" fill="black"/>
<path d="M106.862 16.47V17.637H101.997V11.3525H106.745V12.5196H103.442V13.8844H106.359V15.0156H103.442V16.47H106.862Z" fill="black"/>
<path d="M112.653 11.6305C113.063 11.8163 113.379 12.0797 113.601 12.4207C113.822 12.7618 113.932 13.1658 113.932 13.6329C113.932 14.094 113.822 14.4961 113.601 14.8404C113.379 15.1848 113.063 15.4482 112.653 15.6307C112.243 15.8131 111.761 15.9047 111.204 15.9047H109.938V17.637H108.484V11.3525H111.204C111.761 11.3525 112.243 11.4454 112.653 11.6305ZM112.119 14.4357C112.347 14.2473 112.461 13.9793 112.461 13.6323C112.461 13.2793 112.347 13.0086 112.119 12.8202C111.892 12.6317 111.56 12.5375 111.123 12.5375H109.938V14.719H111.123C111.56 14.719 111.892 14.6242 112.119 14.4357Z" fill="black"/>
<path d="M120.19 16.47V17.637H115.325V11.3525H120.073V12.5196H116.771V13.8844H119.687V15.0156H116.771V16.47H120.19Z" fill="black"/>
<path d="M76.0524 22.4854H77.4978V26.579L80.4954 22.4854H81.8593V28.7698H80.4231V24.6848L77.4255 28.7698H76.0518V22.4854H76.0524Z" fill="black"/>
<path d="M85.0595 28.4587C84.5421 28.1801 84.1348 27.7946 83.839 27.3003C83.5431 26.806 83.3945 26.2487 83.3945 25.6257C83.3945 25.0034 83.5425 24.4454 83.839 23.9517C84.1348 23.4581 84.5421 23.072 85.0595 22.7933C85.5769 22.5153 86.1593 22.376 86.8054 22.376C87.35 22.376 87.8415 22.4715 88.282 22.6633C88.7218 22.855 89.0913 23.1304 89.3904 23.4893L88.4571 24.3512C88.0319 23.8608 87.5052 23.6154 86.8777 23.6154C86.4883 23.6154 86.1414 23.7003 85.8369 23.8715C85.5318 24.042 85.2937 24.2802 85.1232 24.5854C84.9527 24.8906 84.8678 25.2376 84.8678 25.627C84.8678 26.0165 84.9527 26.3635 85.1232 26.6687C85.2937 26.9739 85.5318 27.2121 85.8369 27.3826C86.1421 27.5531 86.489 27.6387 86.8777 27.6387C87.5059 27.6387 88.0326 27.3905 88.4571 26.8936L89.3904 27.7555C89.0913 28.1204 88.7205 28.399 88.2773 28.5901C87.8349 28.7819 87.3407 28.8774 86.7961 28.8774C86.156 28.8767 85.5769 28.7374 85.0595 28.4587Z" fill="black"/>
<path d="M93.1759 26.238H92.1703V28.7698H90.7256V22.4854H92.1703V25.0258H93.2118L94.8635 22.4854H96.3984L94.3427 25.5194L96.4614 28.7692H94.8097L93.1759 26.238Z" fill="black"/>
<path d="M103.762 22.4854L101.087 27.4588C100.83 27.9378 100.521 28.2994 100.159 28.5449C99.7965 28.7904 99.4032 28.9131 98.9787 28.9131C98.6496 28.9131 98.3087 28.8415 97.9551 28.6975L98.3054 27.5935C98.5568 27.6711 98.7664 27.7102 98.9335 27.7102C99.1133 27.7102 99.2752 27.6671 99.4184 27.5802C99.5624 27.4933 99.6937 27.3573 99.8138 27.1715L99.8675 27.0998L97.3906 22.4854H98.9435L100.612 25.8605L102.336 22.4854H103.762Z" fill="black"/>
<path d="M105.932 28.4587C105.414 28.1801 105.007 27.7946 104.711 27.3003C104.415 26.806 104.267 26.2487 104.267 25.6257C104.267 25.0034 104.415 24.4454 104.711 23.9517C105.007 23.4581 105.414 23.072 105.932 22.7933C106.449 22.5153 107.031 22.376 107.677 22.376C108.222 22.376 108.714 22.4715 109.154 22.6633C109.594 22.855 109.963 23.1304 110.262 23.4893L109.329 24.3512C108.904 23.8608 108.377 23.6154 107.75 23.6154C107.36 23.6154 107.013 23.7003 106.709 23.8715C106.404 24.042 106.166 24.2802 105.995 24.5854C105.825 24.8906 105.74 25.2376 105.74 25.627C105.74 26.0165 105.825 26.3635 105.995 26.6687C106.166 26.9739 106.404 27.2121 106.709 27.3826C107.014 27.5531 107.361 27.6387 107.75 27.6387C108.378 27.6387 108.905 27.3905 109.329 26.8936L110.262 27.7555C109.963 28.1204 109.593 28.399 109.149 28.5901C108.707 28.7819 108.213 28.8774 107.668 28.8774C107.028 28.8767 106.449 28.7374 105.932 28.4587Z" fill="black"/>
<path d="M112.735 28.4587C112.218 28.1801 111.811 27.7946 111.515 27.3003C111.219 26.806 111.07 26.2487 111.07 25.6257C111.07 25.0034 111.218 24.4454 111.515 23.9517C111.811 23.4581 112.218 23.072 112.735 22.7933C113.253 22.5153 113.835 22.376 114.481 22.376C115.026 22.376 115.517 22.4715 115.958 22.6633C116.398 22.855 116.767 23.1304 117.066 23.4893L116.133 24.3512C115.708 23.8608 115.181 23.6154 114.553 23.6154C114.164 23.6154 113.817 23.7003 113.513 23.8715C113.208 24.042 112.969 24.2802 112.799 24.5854C112.628 24.8906 112.544 25.2376 112.544 25.627C112.544 26.0165 112.628 26.3635 112.799 26.6687C112.969 26.9739 113.208 27.2121 113.513 27.3826C113.818 27.5531 114.165 27.6387 114.553 27.6387C115.182 27.6387 115.708 27.3905 116.133 26.8936L117.066 27.7555C116.767 28.1204 116.396 28.399 115.953 28.5901C115.511 28.7819 115.016 28.8774 114.472 28.8774C113.832 28.8767 113.253 28.7374 112.735 28.4587Z" fill="black"/>
<path d="M123.537 23.6703H121.526V28.7692H120.09V23.6703H118.089V22.4854H123.537V23.6703Z" fill="black"/>
<path d="M130.1 26.0486C130.304 26.306 130.405 26.6232 130.405 27C130.405 27.5567 130.194 27.9906 129.773 28.3018C129.351 28.6129 128.748 28.7688 127.964 28.7688H124.867V22.4844H127.793C128.523 22.4844 129.091 22.625 129.499 22.9063C129.905 23.1877 130.109 23.5884 130.109 24.1092C130.109 24.4204 130.031 24.6944 129.875 24.9306C129.719 25.1675 129.501 25.3539 129.22 25.4919C129.603 25.606 129.897 25.7918 130.1 26.0486ZM126.313 25.0885H127.668C127.985 25.0885 128.224 25.0242 128.386 24.8955C128.547 24.7667 128.628 24.577 128.628 24.3255C128.628 24.08 128.545 23.8916 128.382 23.7602C128.217 23.6289 127.979 23.5625 127.668 23.5625H126.313V25.0885ZM128.933 26.8839C128.933 26.3631 128.592 26.103 127.911 26.103H126.313V27.692H127.911C128.592 27.6914 128.933 27.4226 128.933 26.8839Z" fill="black"/>
<path d="M136.833 27.6018V28.7688H131.968V22.4844H136.716V23.6514H133.413V25.0162H136.33V26.1474H133.413V27.6018H136.833Z" fill="black"/>
<path d="M144.215 22.4854V28.7698H142.761V26.1935H139.907V28.7698H138.453V22.4854H139.907V24.9628H142.761V22.4854H144.215Z" fill="black"/>
<path d="M151.917 22.4854V28.7698H150.463V26.1935H147.608V28.7698H146.154V22.4854H147.608V24.9628H150.463V22.4854H151.917Z" fill="black"/>
<path d="M155.128 28.4554C154.605 28.1741 154.195 27.7866 153.899 27.293C153.603 26.7994 153.454 26.244 153.454 25.6277C153.454 25.0113 153.602 24.4559 153.899 23.9623C154.194 23.4687 154.604 23.0812 155.128 22.7999C155.652 22.5186 156.24 22.3779 156.892 22.3779C157.545 22.3779 158.131 22.5186 158.651 22.7999C159.171 23.0812 159.582 23.4687 159.881 23.9623C160.18 24.4559 160.33 25.0113 160.33 25.6277C160.33 26.244 160.18 26.7994 159.881 27.293C159.582 27.7866 159.172 28.1741 158.651 28.4554C158.131 28.7367 157.544 28.8774 156.892 28.8774C156.24 28.8774 155.652 28.7367 155.128 28.4554ZM157.897 27.3826C158.196 27.212 158.431 26.9738 158.602 26.6686C158.773 26.3634 158.858 26.0164 158.858 25.627C158.858 25.2382 158.773 24.8912 158.602 24.5853C158.431 24.2801 158.196 24.0419 157.897 23.8714C157.598 23.7009 157.263 23.6153 156.892 23.6153C156.521 23.6153 156.186 23.7002 155.887 23.8714C155.588 24.0419 155.353 24.2801 155.183 24.5853C155.012 24.8905 154.927 25.2375 154.927 25.627C154.927 26.0164 155.012 26.3634 155.183 26.6686C155.353 26.9738 155.588 27.212 155.887 27.3826C156.186 27.5531 156.521 27.6387 156.892 27.6387C157.263 27.6387 157.598 27.5531 157.897 27.3826Z" fill="black"/>
<path d="M166.284 23.67H163.296L163.305 28.7688H161.859V22.4844H166.294L166.284 23.67Z" fill="black"/>
<path d="M168.799 28.4554C168.276 28.1741 167.866 27.7866 167.569 27.293C167.274 26.7994 167.125 26.244 167.125 25.6277C167.125 25.0113 167.273 24.4559 167.569 23.9623C167.865 23.4687 168.275 23.0812 168.799 22.7999C169.323 22.5186 169.911 22.3779 170.563 22.3779C171.216 22.3779 171.802 22.5186 172.322 22.7999C172.843 23.0812 173.253 23.4687 173.552 23.9623C173.851 24.4559 174.001 25.0113 174.001 25.6277C174.001 26.244 173.851 26.7994 173.552 27.293C173.253 27.7866 172.843 28.1741 172.322 28.4554C171.802 28.7367 171.215 28.8774 170.563 28.8774C169.911 28.8774 169.323 28.7367 168.799 28.4554ZM171.568 27.3826C171.867 27.212 172.102 26.9738 172.273 26.6686C172.444 26.3634 172.529 26.0164 172.529 25.627C172.529 25.2382 172.444 24.8912 172.273 24.5853C172.102 24.2801 171.867 24.0419 171.568 23.8714C171.269 23.7009 170.934 23.6153 170.563 23.6153C170.192 23.6153 169.857 23.7002 169.558 23.8714C169.259 24.0419 169.024 24.2801 168.854 24.5853C168.683 24.8905 168.598 25.2375 168.598 25.627C168.598 26.0164 168.683 26.3634 168.854 26.6686C169.024 26.9738 169.259 27.212 169.558 27.3826C169.857 27.5531 170.192 27.6387 170.563 27.6387C170.934 27.638 171.269 27.5531 171.568 27.3826Z" fill="black"/>
<path d="M76.0514 33.6172H77.4969V37.7109L80.4945 33.6172H81.8583V39.9017H80.4222V35.8166L77.4245 39.9017H76.0508V33.6172H76.0514Z" fill="black"/>
<path d="M89.5514 33.6172V39.9017H88.0974V37.3254H85.2431V39.9017H83.7891V33.6172H85.2431V36.0946H88.0974V33.6172H89.5514Z" fill="black"/>
<path d="M96.3327 34.8022H94.3222V39.901H92.886V34.8022H90.8848V33.6172H96.3327V34.8022Z" fill="black"/>
<path d="M102.528 38.7336V39.9007H97.6631V33.6162H102.411V34.7833H99.1085V36.148H102.025V37.2793H99.1085V38.7336H102.528Z" fill="black"/>
<path d="M109.913 33.6172V39.9017H108.477V34.8028H106.323L106.278 36.1132C106.249 37.0049 106.177 37.7281 106.063 38.2814C105.949 38.8348 105.76 39.2601 105.493 39.556C105.227 39.8526 104.855 40.0005 104.376 40.0005C104.178 40.0005 103.939 39.9673 103.658 39.9017L103.748 38.6716C103.825 38.6955 103.912 38.7074 104.008 38.7074C104.355 38.7074 104.597 38.5024 104.735 38.0924C104.873 37.6823 104.959 37.0407 104.995 36.1669L105.084 33.6172H109.913Z" fill="black"/>
<path d="M117.495 33.6172V39.9017H116.059V34.8028H113.906L113.86 36.1132C113.831 37.0049 113.759 37.7281 113.645 38.2814C113.531 38.8348 113.342 39.2601 113.075 39.556C112.809 39.8526 112.437 40.0005 111.958 40.0005C111.76 40.0005 111.521 39.9673 111.24 39.9017L111.33 38.6716C111.407 38.6955 111.494 38.7074 111.59 38.7074C111.937 38.7074 112.179 38.5024 112.317 38.0924C112.455 37.6823 112.541 37.0407 112.577 36.1669L112.666 33.6172H117.495Z" fill="black"/>
<path d="M124.292 38.7336V39.9007H119.427V33.6162H124.175V34.7833H120.872V36.148H123.789V37.2793H120.872V38.7336H124.292Z" fill="black"/>
<path d="M128.356 37.3698H127.35V39.9017H125.905V33.6172H127.35V36.1576H128.391L130.043 33.6172H131.578L129.522 36.6513L131.641 39.901H129.989L128.356 37.3698Z" fill="black"/>
<path d="M138.046 34.8022H136.035V39.901H134.599V34.8022H132.598V33.6172H138.046V34.8022Z" fill="black"/>
<path d="M142.974 38.5548H140.058L139.501 39.9017H138.011L140.811 33.6172H142.247L145.057 39.9017H143.53L142.974 38.5548ZM142.517 37.4508L141.52 35.045L140.524 37.4508H142.517Z" fill="black"/>
<defs>
<radialGradient id="paint0_radial_314_7083" cx="0" cy="0" r="1" gradientUnits="userSpaceOnUse" gradientTransform="translate(44.3757 38.6125) scale(39.3049 39.3135)">
<stop offset="0.000578269" stop-color="#D9FF00"/>
<stop offset="0.381" stop-color="#08EB85"/>
<stop offset="1" stop-color="#00279C"/>
</radialGradient>
<radialGradient id="paint1_radial_314_7083" cx="0" cy="0" r="1" gradientUnits="userSpaceOnUse" gradientTransform="translate(44.3767 38.6131) scale(39.3049 39.3135)">
<stop offset="0.000578269" stop-color="#D9FF00"/>
<stop offset="0.381" stop-color="#08EB85"/>
<stop offset="1" stop-color="#00279C"/>
</radialGradient>
<radialGradient id="paint2_radial_314_7083" cx="0" cy="0" r="1" gradientUnits="userSpaceOnUse" gradientTransform="translate(44.3768 38.6129) scale(39.305 39.3135)">
<stop offset="0.000578269" stop-color="#D9FF00"/>
<stop offset="0.381" stop-color="#08EB85"/>
<stop offset="1" stop-color="#00279C"/>
</radialGradient>
<radialGradient id="paint3_radial_314_7083" cx="0" cy="0" r="1" gradientUnits="userSpaceOnUse" gradientTransform="translate(44.3755 38.6128) scale(39.3049 39.3135)">
<stop offset="0.000578269" stop-color="#D9FF00"/>
<stop offset="0.381" stop-color="#08EB85"/>
<stop offset="1" stop-color="#00279C"/>
</radialGradient>
<radialGradient id="paint4_radial_314_7083" cx="0" cy="0" r="1" gradientUnits="userSpaceOnUse" gradientTransform="translate(44.3949 32.4638) scale(32.5362 32.5433)">
<stop offset="0.000578269" stop-color="#D9FF00"/>
<stop offset="0.381" stop-color="#08EB85"/>
<stop offset="1" stop-color="#00279C"/>
</radialGradient>
<radialGradient id="paint5_radial_314_7083" cx="0" cy="0" r="1" gradientUnits="userSpaceOnUse" gradientTransform="translate(44.3773 38.6126) scale(39.305 39.3135)">
<stop offset="0.000578269" stop-color="#D9FF00"/>
<stop offset="0.381" stop-color="#08EB85"/>
<stop offset="1" stop-color="#00279C"/>
</radialGradient>
<radialGradient id="paint6_radial_314_7083" cx="0" cy="0" r="1" gradientUnits="userSpaceOnUse" gradientTransform="translate(44.3765 38.6141) scale(39.305 39.3135)">
<stop offset="0.000578269" stop-color="#D9FF00"/>
<stop offset="0.381" stop-color="#08EB85"/>
<stop offset="1" stop-color="#00279C"/>
</radialGradient>
<radialGradient id="paint7_radial_314_7083" cx="0" cy="0" r="1" gradientUnits="userSpaceOnUse" gradientTransform="translate(44.3762 38.6141) scale(39.3049 39.3135)">
<stop offset="0.000578269" stop-color="#D9FF00"/>
<stop offset="0.381" stop-color="#08EB85"/>
<stop offset="1" stop-color="#00279C"/>
</radialGradient>
<radialGradient id="paint8_radial_314_7083" cx="0" cy="0" r="1" gradientUnits="userSpaceOnUse" gradientTransform="translate(44.3759 38.6122) scale(39.305 39.3135)">
<stop offset="0.000578269" stop-color="#D9FF00"/>
<stop offset="0.381" stop-color="#08EB85"/>
<stop offset="1" stop-color="#00279C"/>
</radialGradient>
<radialGradient id="paint9_radial_314_7083" cx="0" cy="0" r="1" gradientUnits="userSpaceOnUse" gradientTransform="translate(44.378 38.6127) scale(39.305 39.3135)">
<stop offset="0.000578269" stop-color="#D9FF00"/>
<stop offset="0.381" stop-color="#08EB85"/>
<stop offset="1" stop-color="#00279C"/>
</radialGradient>
<radialGradient id="paint10_radial_314_7083" cx="0" cy="0" r="1" gradientUnits="userSpaceOnUse" gradientTransform="translate(44.3761 38.6135) scale(39.3049 39.3135)">
<stop offset="0.000578269" stop-color="#D9FF00"/>
<stop offset="0.381" stop-color="#08EB85"/>
<stop offset="1" stop-color="#00279C"/>
</radialGradient>
<radialGradient id="paint11_radial_314_7083" cx="0" cy="0" r="1" gradientUnits="userSpaceOnUse" gradientTransform="translate(44.3778 38.6135) scale(39.305 39.3135)">
<stop offset="0.000578269" stop-color="#D9FF00"/>
<stop offset="0.381" stop-color="#08EB85"/>
<stop offset="1" stop-color="#00279C"/>
</radialGradient>
<radialGradient id="paint12_radial_314_7083" cx="0" cy="0" r="1" gradientUnits="userSpaceOnUse" gradientTransform="translate(44.3756 38.6131) scale(39.305 39.3135)">
<stop offset="0.000578269" stop-color="#D9FF00"/>
<stop offset="0.381" stop-color="#08EB85"/>
<stop offset="1" stop-color="#00279C"/>
</radialGradient>
<radialGradient id="paint13_radial_314_7083" cx="0" cy="0" r="1" gradientUnits="userSpaceOnUse" gradientTransform="translate(44.3762 38.6118) scale(39.305 39.3135)">
<stop offset="0.000578269" stop-color="#D9FF00"/>
<stop offset="0.381" stop-color="#08EB85"/>
<stop offset="1" stop-color="#00279C"/>
</radialGradient>
</defs>
</svg>
