<svg width="24" height="24" viewBox="0 0 24 24" fill="none" xmlns="http://www.w3.org/2000/svg">
<path fill-rule="evenodd" clip-rule="evenodd" d="M11.9984 2.40039C6.69651 2.40039 2.39844 6.69845 2.39844 12.0004C2.39844 17.3023 6.6965 21.6004 11.9984 21.6004C17.3004 21.6004 21.5984 17.3023 21.5984 12.0004C21.5984 6.69846 17.3004 2.40039 11.9984 2.40039ZM10.9699 17.2005C10.9699 17.7685 11.4304 18.2291 11.9984 18.2291C12.5665 18.2291 13.027 17.7685 13.027 17.2005C13.027 16.6324 12.5665 16.1719 11.9984 16.1719C11.4304 16.1719 10.9699 16.6324 10.9699 17.2005ZM10.4556 10.2004C10.4556 9.3483 11.1463 8.65754 11.9984 8.65754C12.8505 8.65754 13.5413 9.3483 13.5413 10.2004C13.5413 11.0525 12.8505 11.7432 11.9984 11.7432C11.4304 11.7432 10.9699 12.2038 10.9699 12.7718V14.1148C10.9699 14.6829 11.4304 15.1434 11.9984 15.1434C12.5665 15.1434 13.027 14.6829 13.027 14.1148V13.6513C14.5141 13.2087 15.5984 11.8312 15.5984 10.2004C15.5984 8.21217 13.9867 6.60039 11.9984 6.60039C10.0102 6.60039 8.39844 8.21217 8.39844 10.2004C8.39844 10.7685 8.85894 11.229 9.42701 11.229C9.99507 11.229 10.4556 10.7685 10.4556 10.2004Z" fill="#C9C9CC"/>
</svg>
