<svg width="14" height="14" viewBox="0 0 14 14" fill="none" xmlns="http://www.w3.org/2000/svg">
<path fill-rule="evenodd" clip-rule="evenodd" d="M2.29925 2.29827C2.64096 1.95657 3.19498 1.95657 3.53669 2.29827L7.0013 5.76289L10.4659 2.29828C10.8076 1.95657 11.3616 1.95657 11.7034 2.29828C12.0451 2.63998 12.0451 3.194 11.7034 3.53571L8.23874 7.00033L11.7034 10.4649C12.0451 10.8066 12.0451 11.3607 11.7034 11.7024C11.3616 12.0441 10.8076 12.0441 10.4659 11.7024L7.0013 8.23776L3.53669 11.7024C3.19498 12.0441 2.64096 12.0441 2.29925 11.7024C1.95754 11.3607 1.95754 10.8066 2.29925 10.4649L5.76387 7.00033L2.29925 3.53571C1.95754 3.194 1.95754 2.63998 2.29925 2.29827Z" fill="#C9C9CC"/>
</svg>
