<svg width="61" height="61" viewBox="0 0 61 61" fill="none" xmlns="http://www.w3.org/2000/svg">
<mask id="mask0_536_13535" style="mask-type:luminance" maskUnits="userSpaceOnUse" x="11" y="11" width="39" height="39">
<path d="M49.125 11H11V49.125H49.125V11Z" fill="white"/>
</mask>
<g mask="url(#mask0_536_13535)">
<path d="M49.125 11H11V49.125H49.125V11Z" fill="#7F7D83"/>
<mask id="mask1_536_13535" style="mask-type:luminance" maskUnits="userSpaceOnUse" x="11" y="11" width="39" height="39">
<path d="M49.125 11H11V49.125H49.125V11Z" fill="white"/>
</mask>
<g mask="url(#mask1_536_13535)">
<path d="M49.125 11H11V49.125H49.125V11Z" fill="#7F7D83"/>
<path d="M22.598 13.9316L19.7961 19.7508L16.9941 13.9316H13.9365V22.7276H16.0795V16.4332L18.8187 21.7503H20.7734L23.5126 16.4332V22.7276H25.6601V13.9316H22.598Z" fill="white"/>
<path d="M36.4014 13.9316V15.6846H40.2301L40.221 22.7276H42.3641L42.373 15.6846H46.2061V13.9316H36.4014Z" fill="white"/>
<path d="M44.0586 43.2563C44.005 43.606 43.866 43.893 43.6372 44.1126C43.422 44.3187 43.1353 44.4623 42.7764 44.5475C42.4223 44.6281 41.9069 44.6774 41.3553 44.6774C40.8038 44.6774 40.2838 44.6057 39.858 44.4578C39.4455 44.3187 39.1182 44.0722 38.8897 43.727C38.6563 43.3819 38.5399 42.8796 38.5399 42.2432V41.3419C38.5399 40.7009 38.6563 40.2033 38.8897 39.8581C39.1182 39.5129 39.4455 39.2707 39.858 39.1274C40.2838 38.9838 40.786 38.9075 41.3553 38.9075C41.9247 38.9075 42.4223 38.9525 42.7764 39.0377C43.1353 39.1182 43.422 39.2662 43.6372 39.4725C43.8614 39.6921 44.005 39.9791 44.0586 40.3288H46.2061C46.1479 39.6024 45.9014 38.9838 45.4708 38.4907C45.0763 38.0378 44.5339 37.7061 43.8568 37.5043C43.198 37.307 42.3372 37.2041 41.3599 37.2041C40.3331 37.2041 39.4409 37.352 38.7059 37.6433C37.9614 37.9392 37.3878 38.4325 36.9931 39.1093C36.6121 39.7595 36.4148 40.6247 36.4014 41.6871V41.7857L36.518 41.7903L36.4014 41.7949V41.8935C36.4148 42.9559 36.6121 43.8211 36.9931 44.4712C37.3878 45.1481 37.966 45.6414 38.7059 45.9373C39.4366 46.2285 40.3288 46.3765 41.3599 46.3765C42.3911 46.3765 43.2024 46.2735 43.8568 46.0763C44.5339 45.8745 45.0763 45.5428 45.4708 45.0899C45.9014 44.5968 46.1479 43.9782 46.2061 43.2517L44.0586 43.2563Z" fill="white"/>
</g>
</g>
</svg>
