<svg width="228" height="61" viewBox="0 0 228 61" fill="none" xmlns="http://www.w3.org/2000/svg">
<path fill-rule="evenodd" clip-rule="evenodd" d="M13.3096 37.0861V9.00781H41.9686V19.3566H24.1913V37.0861H13.3096ZM24.1913 37.0861V47.3588H52.3905V19.3566H41.9686V37.0861H24.1913Z" fill="#7F7D83"/>
<path d="M62.0447 30.0856C62.0447 30.1617 62.0447 30.2377 61.968 30.3138C61.968 30.3899 61.8914 30.3899 61.7381 30.3899H60.5886C60.3588 30.3899 60.2822 30.3138 60.2822 30.0856V20.5739C60.2822 20.3456 60.3588 20.2695 60.5886 20.2695H63.7304C64.1902 20.2695 64.6499 20.3456 65.0332 20.4217C65.4163 20.5739 65.7994 20.7261 66.106 20.9544C66.4124 21.1827 66.6424 21.4871 66.7956 21.8675C66.9488 22.248 67.0255 22.7045 67.0255 23.1611C67.0255 23.5415 66.9488 23.8459 66.8722 24.2263C66.7956 24.6068 66.5657 24.9113 66.3358 25.2156C66.106 25.52 65.7227 25.7482 65.3396 25.9766C64.8799 26.2048 64.3435 26.2809 63.7304 26.2809H61.968V30.0856H62.0447ZM65.3396 23.3894C65.3396 22.8567 65.1863 22.4762 64.8799 22.1719C64.5734 21.9435 64.1136 21.7914 63.6539 21.7914H62.1212V24.9873H63.7304C64.3435 24.9873 64.8032 24.8352 65.0332 24.5308C65.1863 24.2263 65.3396 23.8459 65.3396 23.3894Z" fill="#7F7D83"/>
<path d="M77.4472 25.2156C77.4472 25.8243 77.3707 26.4331 77.294 27.0418C77.2174 27.6505 77.0641 28.2593 76.7576 28.7919C76.451 29.3246 76.0679 29.7051 75.5315 30.0856C74.9951 30.3899 74.2289 30.6181 73.3094 30.6181C72.6963 30.6181 72.1599 30.5421 71.7 30.3899C71.2403 30.2377 70.8572 30.0094 70.5507 29.7812C70.2441 29.5529 70.0143 29.2485 69.861 28.868C69.7077 28.4876 69.5545 28.1832 69.4779 27.7266C69.4012 27.3462 69.3246 26.9657 69.3246 26.5091C69.3246 26.1287 69.248 25.6722 69.248 25.2917C69.248 24.9873 69.248 24.6829 69.3246 24.3024C69.3246 23.922 69.4012 23.5415 69.5545 23.161C69.6312 22.7806 69.7844 22.4001 70.0143 22.0958C70.1676 21.7153 70.4741 21.4109 70.7805 21.1827C71.0871 20.8783 71.4702 20.7261 71.93 20.4978C72.3897 20.3456 72.9261 20.2695 73.5392 20.2695C74.4587 20.2695 75.1484 20.4217 75.7614 20.7261C76.2977 21.0305 76.7576 21.4109 76.9874 21.8675C77.294 22.324 77.4472 22.8567 77.5238 23.4654C77.3707 23.9981 77.4472 24.6068 77.4472 25.2156ZM75.6848 25.3677C75.6848 24.759 75.6082 24.2263 75.6082 23.7699C75.5315 23.3133 75.3782 22.9328 75.225 22.6285C75.0718 22.324 74.7653 22.0958 74.4587 21.9435C74.1522 21.7914 73.769 21.7153 73.3094 21.7153C72.8495 21.7153 72.543 21.7914 72.2366 21.9435C71.93 22.0958 71.7001 22.324 71.5469 22.6285C71.3936 22.9328 71.2404 23.3133 71.1637 23.7699C71.0871 24.2263 71.0871 24.759 71.0871 25.3677C71.0871 25.9004 71.0871 26.4331 71.1637 26.8896C71.2404 27.3462 71.3169 27.7266 71.5469 28.031C71.7001 28.3353 71.93 28.5637 72.2366 28.7158C72.543 28.868 72.9261 28.9442 73.3859 28.9442C73.8457 28.9442 74.2289 28.868 74.5354 28.7158C74.8418 28.5637 75.0718 28.3353 75.3017 28.031C75.4549 27.7266 75.6082 27.3462 75.6848 26.8896C75.6082 26.4331 75.6848 25.9004 75.6848 25.3677Z" fill="#7F7D83"/>
<path d="M79.5928 25.4439C79.5928 24.759 79.6694 24.1503 79.746 23.5415C79.8227 22.9328 80.0525 22.324 80.3591 21.8675C80.6656 21.411 81.0487 20.9544 81.5851 20.65C82.1215 20.3456 82.8112 20.1934 83.7307 20.1934C83.884 20.1934 84.1138 20.1934 84.3437 20.1934C84.5736 20.1934 84.8035 20.2695 85.11 20.2695C85.3399 20.2695 85.6464 20.3456 85.8763 20.4217C86.1061 20.4978 86.3361 20.5739 86.5659 20.65C86.7192 20.7261 86.7958 20.7261 86.7958 20.8022C86.8725 20.8783 86.8725 20.9544 86.7958 21.1066L86.6425 21.7153C86.6425 21.7914 86.5659 21.8675 86.5659 21.9435C86.4892 22.0197 86.4127 22.0197 86.2594 21.9435C85.8763 21.8675 85.4932 21.8675 85.0333 21.7914C84.5736 21.7153 84.1905 21.7153 83.8073 21.7153C83.2709 21.7153 82.8878 21.7914 82.5812 22.0197C82.2748 22.248 82.0448 22.4762 81.8917 22.7806C81.7384 23.0849 81.5851 23.4654 81.5851 23.922C81.5084 24.3786 81.5084 24.8352 81.5084 25.2916C81.5084 25.8243 81.5084 26.2809 81.5851 26.6614C81.6617 27.118 81.7384 27.4984 81.9682 27.8028C82.1215 28.1071 82.3514 28.3354 82.6579 28.5637C82.9645 28.7158 83.3476 28.8681 83.884 28.8681C84.3437 28.8681 84.7269 28.8681 85.11 28.7919C85.4932 28.7158 85.8763 28.7158 86.3361 28.6398C86.4894 28.6398 86.5659 28.6398 86.6425 28.6398C86.7192 28.7158 86.7192 28.7158 86.7958 28.8681L86.9491 29.4768C87.0258 29.7051 86.9491 29.8572 86.7192 29.9333C86.5659 30.0095 86.3361 30.0856 86.1061 30.1617C85.8763 30.2377 85.5697 30.2377 85.3399 30.3138C85.11 30.3899 84.8035 30.3899 84.5736 30.3899C84.3437 30.3899 84.1138 30.3899 83.9605 30.3899C83.1176 30.3899 82.4281 30.2377 81.8917 29.9333C81.3553 29.629 80.972 29.2485 80.6656 28.7919C80.3591 28.3354 80.1292 27.8028 80.0525 27.194C79.6694 26.6614 79.5928 26.0526 79.5928 25.4439Z" fill="#7F7D83"/>
<path d="M88.8652 25.4439C88.8652 24.759 88.9418 24.1503 89.0183 23.5415C89.095 22.9328 89.3249 22.324 89.6314 21.8675C89.938 21.411 90.3211 20.9544 90.8575 20.65C91.3939 20.3456 92.0836 20.1934 93.0031 20.1934C93.1563 20.1934 93.3862 20.1934 93.616 20.1934C93.846 20.1934 94.0759 20.2695 94.3824 20.2695C94.6123 20.2695 94.9188 20.3456 95.1487 20.4217C95.3785 20.4978 95.6085 20.5739 95.8383 20.65C95.9916 20.7261 96.0682 20.7261 96.0682 20.8022C96.1449 20.8783 96.1449 20.9544 96.0682 21.1066L95.9149 21.7153C95.9149 21.7914 95.8383 21.8675 95.8383 21.9435C95.7616 22.0197 95.685 22.0197 95.5318 21.9435C95.1487 21.8675 94.7655 21.8675 94.3057 21.7914C93.846 21.7153 93.4628 21.7153 93.0796 21.7153C92.5432 21.7153 92.1601 21.7914 91.8536 22.0197C91.5472 22.248 91.3172 22.4762 91.164 22.7806C91.0108 23.0849 90.8575 23.4654 90.8575 23.922C90.7808 24.3786 90.7808 24.8352 90.7808 25.2916C90.7808 25.8243 90.7808 26.2809 90.8575 26.6614C90.9341 27.118 91.0108 27.4984 91.2406 27.8028C91.3939 28.1071 91.6237 28.3354 91.9303 28.5637C92.2368 28.7158 92.62 28.8681 93.1563 28.8681C93.616 28.8681 93.9993 28.8681 94.3824 28.7919C94.7655 28.7158 95.1486 28.7158 95.6085 28.6398C95.7616 28.6398 95.8383 28.6398 95.9149 28.6398C95.9916 28.7158 95.9916 28.7158 96.0682 28.8681V29.5529C96.1449 29.7812 96.0682 29.9333 95.8383 30.0095C95.685 30.0856 95.4552 30.1617 95.2252 30.2377C94.9954 30.3138 94.6888 30.3138 94.459 30.3899C94.2291 30.466 93.9226 30.466 93.6927 30.466C93.4628 30.466 93.2329 30.466 93.0796 30.466C92.2368 30.466 91.5472 30.3138 91.0108 30.0095C90.4744 29.7051 90.0911 29.3246 89.7847 28.8681C89.4782 28.4115 89.2483 27.8789 89.1716 27.2701C88.9418 26.6614 88.8652 26.0526 88.8652 25.4439Z" fill="#7F7D83"/>
<path d="M99.0572 20.5739C99.0572 20.3456 99.1338 20.2695 99.3636 20.2695H100.513C100.742 20.2695 100.819 20.3456 100.819 20.5739V27.3462L101.509 26.2809L105.11 20.5739C105.187 20.4978 105.187 20.4217 105.264 20.3456C105.34 20.2695 105.417 20.2695 105.57 20.2695H106.566C106.643 20.2695 106.719 20.2695 106.796 20.3456C106.873 20.4217 106.873 20.4978 106.873 20.4978V30.0095C106.873 30.2377 106.796 30.3138 106.566 30.3138H105.417C105.187 30.3138 105.11 30.2377 105.11 30.0095V23.1611L100.742 30.0095C100.666 30.0856 100.589 30.1617 100.513 30.2377C100.436 30.3138 100.283 30.3138 100.206 30.3138H99.287C99.0572 30.3138 98.9805 30.2377 98.9805 30.0095V20.5739H99.0572Z" fill="#7F7D83"/>
<path d="M110.321 20.5732C110.321 20.3449 110.397 20.2688 110.627 20.2688H111.776C112.006 20.2688 112.083 20.3449 112.083 20.5732V27.3455L112.773 26.2802L116.374 20.5732C116.451 20.4971 116.527 20.421 116.604 20.3449C116.681 20.2688 116.757 20.2688 116.911 20.2688H117.907C117.983 20.2688 118.06 20.2688 118.137 20.3449C118.213 20.421 118.213 20.4971 118.213 20.4971V30.0087C118.213 30.237 118.137 30.3131 117.907 30.3131H116.757C116.527 30.3131 116.451 30.237 116.451 30.0087V23.1603L112.083 30.0087C112.006 30.0849 111.93 30.1609 111.853 30.237C111.776 30.3131 111.623 30.3131 111.547 30.3131H110.627C110.397 30.3131 110.321 30.237 110.321 30.0087V20.5732ZM114.229 20.1166C113.692 20.1166 113.232 19.9644 112.773 19.7362C112.313 19.5079 111.93 19.0513 111.7 18.5187C111.623 18.4426 111.623 18.3665 111.623 18.2904C111.623 18.2143 111.623 18.1382 111.7 18.0621L112.083 17.7577C112.16 17.6816 112.236 17.6816 112.313 17.6816C112.389 17.6816 112.389 17.7577 112.466 17.8338C112.773 18.2143 113.079 18.4426 113.309 18.6708C113.539 18.823 113.845 18.8991 114.229 18.8991C114.382 18.8991 114.535 18.8991 114.688 18.823C114.842 18.7469 114.995 18.7469 115.072 18.5947C115.225 18.5187 115.301 18.3665 115.455 18.2904C115.608 18.1382 115.761 17.986 115.914 17.8338C116.068 17.6816 116.144 17.6816 116.297 17.7577L116.681 17.986C116.757 18.0621 116.834 18.1382 116.757 18.2143C116.757 18.2904 116.681 18.4426 116.681 18.5187C116.374 19.0513 116.068 19.4318 115.608 19.7362C115.225 19.9644 114.688 20.1166 114.229 20.1166Z" fill="#7F7D83"/>
<path d="M120.972 25.4439C120.972 24.759 121.048 24.1503 121.125 23.5415C121.202 22.9328 121.431 22.324 121.738 21.8675C122.045 21.411 122.428 20.9544 122.964 20.65C123.5 20.3456 124.19 20.1934 125.11 20.1934C125.263 20.1934 125.493 20.1934 125.723 20.1934C125.953 20.1934 126.182 20.2695 126.489 20.2695C126.719 20.2695 127.025 20.3456 127.255 20.4217C127.485 20.4978 127.715 20.5739 127.945 20.65C128.098 20.7261 128.175 20.7261 128.175 20.8022C128.251 20.8783 128.251 20.9544 128.175 21.1066L128.022 21.7153C128.022 21.7914 127.945 21.8675 127.945 21.9435C127.868 22.0197 127.792 22.0197 127.638 21.9435C127.255 21.8675 126.872 21.8675 126.412 21.7914C125.953 21.7153 125.569 21.7153 125.186 21.7153C124.65 21.7153 124.267 21.7914 123.96 22.0197C123.654 22.248 123.424 22.4762 123.271 22.7806C123.117 23.0849 122.964 23.4654 122.964 23.922C122.887 24.3786 122.887 24.8352 122.887 25.2916C122.887 25.8243 122.887 26.2809 122.964 26.6614C123.041 27.118 123.117 27.4984 123.347 27.8028C123.5 28.1071 123.73 28.3354 124.037 28.5637C124.343 28.7158 124.727 28.8681 125.263 28.8681C125.723 28.8681 126.106 28.8681 126.489 28.7919C126.872 28.7158 127.255 28.7158 127.715 28.6398C127.868 28.6398 127.945 28.6398 128.022 28.6398C128.098 28.7158 128.098 28.7158 128.175 28.8681L128.328 29.4768C128.405 29.7051 128.328 29.8572 128.098 29.9333C127.945 30.0095 127.715 30.0856 127.485 30.1617C127.255 30.2377 126.949 30.2377 126.719 30.3138C126.489 30.3899 126.182 30.3899 125.953 30.3899C125.723 30.3899 125.493 30.3899 125.34 30.3899C124.497 30.3899 123.807 30.2377 123.271 29.9333C122.734 29.629 122.351 29.2485 122.044 28.7919C121.738 28.3354 121.508 27.8028 121.431 27.194C121.048 26.6614 120.972 26.0526 120.972 25.4439Z" fill="#7F7D83"/>
<path d="M136.221 27.2701C136.144 26.9657 135.991 26.7375 135.914 26.5853C135.761 26.4331 135.684 26.2809 135.531 26.2048C135.378 26.1287 135.224 26.0527 135.071 25.9766C134.918 25.9766 134.764 25.9004 134.611 25.9004H133.232V30.0095C133.232 30.0856 133.232 30.1617 133.155 30.2377C133.155 30.3138 133.078 30.3138 132.925 30.3138H131.776C131.546 30.3138 131.469 30.2377 131.469 30.0095V20.5739C131.469 20.3456 131.546 20.2695 131.776 20.2695H132.925C133.002 20.2695 133.078 20.2695 133.155 20.3456C133.155 20.4217 133.232 20.4978 133.232 20.5739V24.4547H134.534C134.688 24.4547 134.841 24.4547 134.994 24.3786C135.148 24.3786 135.301 24.3025 135.454 24.2263C135.607 24.1503 135.761 23.9981 135.837 23.8459C135.991 23.6938 136.067 23.4654 136.144 23.1611L136.909 20.65C136.986 20.4978 136.986 20.4217 137.064 20.3456C137.139 20.2695 137.216 20.2695 137.369 20.2695H138.366C138.519 20.2695 138.596 20.2695 138.672 20.3456C138.672 20.4217 138.672 20.4978 138.672 20.65L137.906 23.2372C137.752 23.7699 137.523 24.1503 137.293 24.4547C137.064 24.759 136.756 24.9873 136.451 25.1395C136.834 25.2917 137.139 25.52 137.369 25.8243C137.599 26.1287 137.752 26.5853 137.906 27.0418L138.825 29.9333C138.902 30.0856 138.902 30.1617 138.825 30.2377C138.825 30.3138 138.672 30.3138 138.519 30.3138H137.446C137.293 30.3138 137.139 30.3138 137.139 30.2377C137.064 30.1617 136.986 30.0856 136.986 29.9333L136.221 27.2701Z" fill="#7F7D83"/>
<path d="M142.045 20.573C142.045 20.3447 142.122 20.2686 142.352 20.2686H143.501C143.731 20.2686 143.808 20.3447 143.808 20.573V27.3453L144.498 26.28L148.099 20.573C148.176 20.4969 148.176 20.4208 148.252 20.3447C148.329 20.2686 148.405 20.2686 148.559 20.2686H149.555C149.632 20.2686 149.708 20.2686 149.785 20.3447C149.862 20.4208 149.862 20.4969 149.862 20.4969V30.0086C149.862 30.2368 149.785 30.3129 149.555 30.3129H148.405C148.176 30.3129 148.099 30.2368 148.099 30.0086V23.1602L143.731 30.0086C143.655 30.0847 143.578 30.1608 143.501 30.2368C143.425 30.3129 143.271 30.3129 143.195 30.3129H142.275C142.045 30.3129 141.968 30.2368 141.968 30.0086V20.573H142.045Z" fill="#7F7D83"/>
<path d="M153.768 20.5732C153.768 20.3449 153.846 20.2688 154.076 20.2688H155.225C155.455 20.2688 155.531 20.3449 155.531 20.5732V27.3455L156.221 26.2802L159.822 20.5732C159.899 20.4971 159.899 20.421 159.975 20.3449C160.052 20.2688 160.129 20.2688 160.282 20.2688H161.278C161.355 20.2688 161.432 20.2688 161.508 20.3449C161.585 20.421 161.585 20.4971 161.585 20.4971V30.0087C161.585 30.237 161.508 30.3131 161.278 30.3131H160.129C159.899 30.3131 159.822 30.237 159.822 30.0087V23.1603L155.455 30.0087C155.378 30.0849 155.301 30.1609 155.225 30.237C155.148 30.3131 154.995 30.3131 154.918 30.3131H153.998C153.768 30.3131 153.693 30.237 153.693 30.0087V20.5732H153.768ZM157.677 20.1166C157.141 20.1166 156.681 19.9644 156.221 19.7362C155.761 19.5079 155.378 19.0513 155.148 18.5187C155.071 18.4426 155.071 18.3665 155.071 18.2904C155.071 18.2143 155.071 18.1382 155.148 18.0621L155.531 17.7577C155.608 17.6816 155.684 17.6816 155.761 17.6816C155.838 17.6816 155.838 17.7577 155.914 17.8338C156.221 18.2143 156.528 18.4426 156.757 18.6708C156.987 18.823 157.294 18.8991 157.677 18.8991C157.83 18.8991 157.984 18.8991 158.137 18.823C158.29 18.7469 158.444 18.7469 158.52 18.5947C158.674 18.5187 158.75 18.3665 158.902 18.2904C159.057 18.1382 159.209 17.986 159.362 17.8338C159.517 17.6816 159.592 17.6816 159.746 17.7577L160.129 17.986C160.205 18.0621 160.282 18.1382 160.205 18.2143C160.205 18.2904 160.129 18.4426 160.129 18.5187C159.822 19.0513 159.517 19.4318 159.057 19.7362C158.674 19.9644 158.214 20.1166 157.677 20.1166Z" fill="#7F7D83"/>
<path d="M175.302 20.5739C175.302 20.3456 175.378 20.2695 175.608 20.2695H176.758C176.833 20.2695 176.91 20.2695 176.988 20.3456C177.063 20.4217 177.063 20.4978 177.063 20.5739V20.8022C177.906 20.8783 178.673 21.0305 179.209 21.3348C179.746 21.6392 180.206 22.0197 180.436 22.4001C180.742 22.8567 180.896 23.2372 181.049 23.7699C181.125 24.2263 181.202 24.6829 181.202 25.1395C181.202 25.6722 181.125 26.1287 181.049 26.6614C180.896 27.1941 180.742 27.6505 180.359 28.031C180.052 28.4876 179.593 28.7919 179.056 29.0963C178.52 29.4008 177.83 29.5529 176.988 29.629V30.0095C176.988 30.0856 176.988 30.1617 176.91 30.2377C176.833 30.3138 176.758 30.3138 176.681 30.3138H175.531C175.302 30.3138 175.225 30.2377 175.225 30.0095V29.629C174.305 29.5529 173.615 29.4008 173.079 29.0963C172.542 28.7919 172.084 28.4115 171.777 27.955C171.469 27.4984 171.24 27.0418 171.164 26.5091C171.087 25.9766 171.011 25.52 171.011 25.0634C171.011 24.6829 171.087 24.3025 171.164 23.7699C171.24 23.3133 171.469 22.8567 171.777 22.4001C172.084 21.9435 172.542 21.5631 173.079 21.2587C173.615 20.9544 174.305 20.7261 175.225 20.65V20.5739H175.302ZM172.849 25.2917C172.849 25.7482 172.926 26.1287 173.002 26.4331C173.079 26.8136 173.232 27.0418 173.385 27.3462C173.615 27.5745 173.845 27.8028 174.152 27.955C174.458 28.1071 174.842 28.1832 175.302 28.2594V22.324C174.842 22.4001 174.458 22.4762 174.152 22.6285C173.845 22.7806 173.615 23.0089 173.385 23.3133C173.156 23.6176 173.079 23.922 172.926 24.2263C172.849 24.5308 172.849 24.8352 172.849 25.2917ZM179.439 25.2917C179.439 24.9113 179.439 24.6068 179.363 24.2263C179.286 23.8459 179.133 23.5415 178.979 23.3133C178.826 23.0089 178.52 22.7806 178.213 22.6285C177.906 22.4762 177.523 22.324 177.063 22.324V28.2594C177.906 28.1832 178.52 27.8789 178.903 27.3462C179.209 26.8136 179.439 26.1287 179.439 25.2917Z" fill="#7F7D83"/>
<path d="M191.699 25.2156C191.699 25.8243 191.623 26.4331 191.546 27.0418C191.469 27.6505 191.316 28.2593 191.01 28.7919C190.703 29.3246 190.321 29.7051 189.784 30.0856C189.248 30.3899 188.481 30.6181 187.562 30.6181C186.949 30.6181 186.412 30.5421 185.952 30.3899C185.492 30.2377 185.11 30.0094 184.803 29.7812C184.497 29.5529 184.267 29.2485 184.114 28.868C183.96 28.4876 183.807 28.1832 183.73 27.7266C183.654 27.3462 183.577 26.9657 183.577 26.5091C183.577 26.1287 183.501 25.6722 183.501 25.2917C183.501 24.9873 183.501 24.6829 183.577 24.3024C183.577 23.922 183.654 23.5415 183.807 23.161C183.884 22.7806 184.037 22.4001 184.267 22.0958C184.42 21.7153 184.727 21.4109 185.032 21.1827C185.34 20.8783 185.722 20.7261 186.182 20.4978C186.642 20.3456 187.178 20.2695 187.792 20.2695C188.711 20.2695 189.401 20.4217 190.014 20.7261C190.551 21.0305 191.01 21.4109 191.24 21.8675C191.546 22.324 191.699 22.8567 191.776 23.4654C191.699 23.9981 191.699 24.6068 191.699 25.2156ZM189.938 25.3677C189.938 24.759 189.938 24.2263 189.784 23.7699C189.708 23.3133 189.554 22.9328 189.401 22.6285C189.248 22.324 188.941 22.0958 188.635 21.9435C188.328 21.7914 187.945 21.7153 187.485 21.7153C187.025 21.7153 186.719 21.7914 186.412 21.9435C186.105 22.0958 185.877 22.324 185.722 22.6285C185.569 22.9328 185.417 23.3133 185.34 23.7699C185.262 24.2263 185.262 24.759 185.262 25.3677C185.262 25.9004 185.262 26.4331 185.34 26.8896C185.417 27.3462 185.492 27.7266 185.722 28.031C185.877 28.3353 186.105 28.5637 186.412 28.7158C186.719 28.868 187.102 28.9442 187.562 28.9442C188.022 28.9442 188.405 28.868 188.711 28.7158C189.018 28.5637 189.248 28.3353 189.478 28.031C189.631 27.7266 189.784 27.3462 189.861 26.8896C189.938 26.4331 189.938 25.9004 189.938 25.3677Z" fill="#7F7D83"/>
<path d="M200.13 20.5739C200.13 20.3456 200.206 20.2695 200.436 20.2695H201.586C201.662 20.2695 201.739 20.2695 201.816 20.3456C201.816 20.4217 201.892 20.4978 201.892 20.5739V30.0856C201.892 30.1617 201.892 30.2377 201.816 30.3138C201.816 30.3899 201.739 30.3899 201.586 30.3899H200.436C200.206 30.3899 200.13 30.3138 200.13 30.0856V25.8243H196.298V30.0856C196.298 30.1617 196.298 30.2377 196.222 30.3138C196.222 30.3899 196.145 30.3899 195.992 30.3899H194.842C194.612 30.3899 194.536 30.3138 194.536 30.0856V20.5739C194.536 20.3456 194.612 20.2695 194.842 20.2695H195.992C196.068 20.2695 196.145 20.2695 196.222 20.3456C196.222 20.4217 196.298 20.4978 196.298 20.5739V24.3024H200.13V20.5739Z" fill="#7F7D83"/>
<path d="M212.619 30.3901H206.566C206.566 30.6945 206.489 31.0749 206.489 31.3793C206.489 31.6836 206.412 32.0641 206.412 32.3685C206.412 32.5207 206.337 32.5968 206.337 32.6729C206.259 32.7489 206.182 32.7489 206.107 32.7489H205.264C205.187 32.7489 205.11 32.7489 205.034 32.6729C205.034 32.5968 204.957 32.5207 204.957 32.3685L204.88 29.4008C204.88 29.2487 204.88 29.1726 204.957 29.0965C205.034 29.0204 205.11 29.0204 205.187 28.9443L205.647 28.8683C205.8 28.716 205.952 28.5639 206.107 28.4117C206.259 28.2594 206.337 28.0312 206.412 27.879C206.489 27.6507 206.566 27.4225 206.642 27.1942C206.719 26.9659 206.719 26.6616 206.795 26.2811C206.872 25.3679 207.025 24.4548 207.102 23.5417C207.179 22.6285 207.255 21.7155 207.332 20.8023C207.332 20.6502 207.409 20.5741 207.409 20.498C207.485 20.4219 207.562 20.4219 207.792 20.4219H213.386C213.616 20.4219 213.692 20.498 213.692 20.7262V29.0204L214.306 29.0965C214.459 29.0965 214.535 29.2487 214.535 29.477L214.382 32.4446C214.382 32.5968 214.382 32.7489 214.306 32.7489C214.306 32.825 214.229 32.825 214.076 32.825H213.156C213.079 32.825 213.003 32.825 212.926 32.7489C212.926 32.6729 212.849 32.5968 212.849 32.4446L212.619 30.3901ZM211.776 28.8683V21.7915H208.712L208.328 25.9766C208.328 26.3571 208.252 26.6616 208.252 26.9659C208.175 27.2703 208.175 27.4985 208.098 27.7269C208.022 27.9551 207.945 28.1834 207.868 28.3356C207.792 28.4878 207.639 28.716 207.562 28.8683H211.776Z" fill="#7F7D83"/>
<path d="M66.7961 47.5866C66.7961 47.7389 66.7196 47.7388 66.6429 47.7388H66.1065C65.9532 47.7388 65.9532 47.6628 65.9532 47.5866V38.6838H61.0491V47.5866C61.0491 47.7389 60.9724 47.7388 60.8958 47.7388H60.3594C60.2827 47.7388 60.2061 47.6628 60.2061 47.5866V38.0751C60.2061 37.9229 60.2827 37.9229 60.3594 37.9229H66.6429C66.7196 37.9229 66.7961 37.999 66.7961 38.0751V47.5866Z" fill="#7F7D83"/>
<path d="M75.9145 40.7393C75.9145 41.1198 75.8379 41.4241 75.7612 41.8046C75.6846 42.185 75.4548 42.4894 75.2248 42.7176C74.995 43.0221 74.6884 43.2503 74.3053 43.4026C73.9222 43.5547 73.4624 43.6308 73.0027 43.6308H70.7804V47.5876C70.7804 47.6637 70.7804 47.7398 70.7038 47.7398C70.7038 47.7398 70.6271 47.8159 70.5505 47.8159H70.1674C70.0907 47.8159 70.0142 47.8159 70.0142 47.7398C70.0142 47.7398 69.9375 47.6637 69.9375 47.5876V38.076C69.9375 37.9999 69.9375 37.9238 70.0142 37.9238C70.0142 37.9238 70.0907 37.8477 70.1674 37.8477H73.0027C73.3858 37.8477 73.8455 37.9238 74.152 37.9999C74.5352 38.152 74.8417 38.3043 75.0715 38.5325C75.3015 38.7608 75.5314 39.0652 75.6846 39.3695C75.8379 39.8261 75.9145 40.2827 75.9145 40.7393ZM75.0715 40.7393C75.0715 40.0544 74.8417 39.5218 74.4586 39.1413C74.0755 38.837 73.4624 38.6847 72.8494 38.6847H70.7804V42.946H73.0027C73.1558 42.946 73.3091 42.946 73.5391 42.8699C73.7689 42.7937 73.9988 42.7176 74.2287 42.5655C74.4586 42.4133 74.6119 42.185 74.8417 41.8807C74.9183 41.6523 75.0715 41.2719 75.0715 40.7393Z" fill="#7F7D83"/>
<path d="M78.137 40.8144C78.137 40.3579 78.2137 39.9013 78.3669 39.5208C78.5201 39.1404 78.7501 38.836 79.0566 38.6077C79.363 38.3794 79.6696 38.2272 79.9761 38.0751C80.3592 37.999 80.7424 37.9229 81.1255 37.9229H83.9607C84.114 37.9229 84.114 37.999 84.114 38.0751V47.5866C84.114 47.7389 84.0374 47.7388 83.9607 47.7388H83.4243C83.3478 47.7388 83.2711 47.6628 83.2711 47.5106V43.3255H81.2022C80.9722 43.3255 80.8189 43.3255 80.5891 43.4016C80.4358 43.4776 80.206 43.4776 80.0527 43.6299C79.8994 43.706 79.7462 43.858 79.593 44.0863C79.4397 44.2385 79.363 44.543 79.2865 44.7713L78.5201 47.5106C78.5201 47.5866 78.4435 47.6628 78.4435 47.6628C78.3669 47.6628 78.3669 47.6628 78.2902 47.6628H77.9071C77.8305 47.6628 77.7539 47.6628 77.7539 47.5866C77.7539 47.5106 77.7539 47.4344 77.7539 47.3583L78.5201 44.6189C78.6734 44.2385 78.8266 43.8581 78.9799 43.6299C79.1332 43.4016 79.363 43.1732 79.6696 43.0211C79.363 42.9449 79.1332 42.7928 78.9799 42.6407C78.8266 42.4885 78.5968 42.2602 78.5201 42.108C78.3669 41.8798 78.2902 41.6513 78.2902 41.4231C78.137 41.2708 78.137 41.0427 78.137 40.8144ZM78.9799 40.7383C78.9799 41.1947 79.0565 41.5753 79.2098 41.8036C79.363 42.0319 79.593 42.2602 79.8229 42.4123C80.0527 42.5646 80.2825 42.6407 80.5891 42.6407C80.8189 42.6407 81.0489 42.6407 81.2788 42.6407H83.2711V38.6838H81.2788C80.9722 38.6838 80.7424 38.6837 80.5125 38.7598C80.2826 38.8359 79.9761 38.9121 79.8229 39.1404C79.593 39.2925 79.4397 39.5208 79.2865 39.7491C79.0565 40.0534 78.9799 40.3578 78.9799 40.7383Z" fill="#7F7D83"/>
<path d="M95.9139 47.5866C95.9139 47.6628 95.9139 47.7388 95.9139 47.7388C95.9139 47.7388 95.8374 47.8149 95.7607 47.8149H95.301C95.2243 47.8149 95.1477 47.8149 95.1477 47.7388C95.1477 47.7388 95.071 47.6628 95.071 47.5866V39.673H94.9944L94.458 40.9665L92.0059 46.0648C91.9293 46.1409 91.8526 46.2169 91.776 46.2169H91.3929C91.3162 46.2169 91.2397 46.1409 91.163 46.0648L88.6343 40.8144L88.0979 39.673H88.0212V47.5866C88.0212 47.6628 88.0212 47.7388 88.0212 47.7388C88.0212 47.7388 87.9446 47.8149 87.868 47.8149H87.4848C87.4082 47.8149 87.3316 47.8149 87.3316 47.7388C87.3316 47.7388 87.2549 47.6628 87.2549 47.5866V38.0751C87.2549 37.9229 87.3316 37.9229 87.4082 37.9229H87.868C87.9446 37.9229 88.0212 37.9229 88.0212 37.9229C88.0212 37.9229 88.0979 37.999 88.0979 38.0751L90.7033 43.6299L91.4695 45.38L92.2357 43.6299L94.8411 38.1511C94.9177 38.075 94.9177 37.999 94.9944 37.999C95.071 37.999 95.1477 37.9229 95.2243 37.9229H95.6074C95.6841 37.9229 95.7607 37.999 95.7607 38.0751V47.5866H95.9139Z" fill="#7F7D83"/>
<path d="M105.263 44.9995C105.263 45.4561 105.186 45.8364 105.033 46.2169C104.88 46.5974 104.65 46.8257 104.42 47.0541C104.19 47.2823 103.807 47.4345 103.5 47.5866C103.117 47.7389 102.734 47.7388 102.351 47.7388H99.2856C99.1323 47.7388 99.0557 47.6628 99.0557 47.5866V38.0751C99.0557 37.9229 99.1323 37.9229 99.2856 37.9229H99.7454C99.8986 37.9229 99.8987 37.999 99.8987 38.0751V42.0318H102.428C102.964 42.0318 103.424 42.108 103.807 42.2602C104.19 42.4123 104.497 42.6407 104.65 42.945C104.88 43.2494 105.033 43.5537 105.11 43.8581C105.263 44.3147 105.263 44.619 105.263 44.9995ZM104.42 44.9995C104.42 44.619 104.343 44.3147 104.267 44.0103C104.113 43.706 103.96 43.4776 103.807 43.3255C103.577 43.1733 103.424 43.0212 103.117 42.945C102.887 42.8689 102.581 42.8689 102.351 42.8689H99.8987V47.0541H102.198C102.887 47.0541 103.424 46.9018 103.807 46.5975C104.19 46.217 104.42 45.6843 104.42 44.9995ZM107.332 47.5866C107.332 47.7389 107.255 47.7388 107.179 47.7388H106.642C106.489 47.7388 106.489 47.6628 106.489 47.5866V38.0751C106.489 37.9229 106.565 37.9229 106.642 37.9229H107.179C107.255 37.9229 107.332 37.999 107.332 38.0751V47.5866Z" fill="#7F7D83"/>
<path d="M113.232 43.4776L110.78 47.6628C110.704 47.7389 110.704 47.8149 110.627 47.8149C110.627 47.8149 110.551 47.8149 110.397 47.8149H109.861C109.708 47.8149 109.708 47.7389 109.784 47.6628L112.773 42.7928L110.014 38.1511C110.014 38.075 109.937 38.0751 110.014 37.999L110.091 37.9229H110.627C110.704 37.9229 110.78 37.9229 110.857 37.999C110.857 37.999 110.934 38.075 110.934 38.1511L113.232 42.108L115.531 38.2271C115.608 38.075 115.685 38.0751 115.838 38.0751H116.298C116.374 38.0751 116.451 38.075 116.451 38.1511C116.451 38.2271 116.451 38.2271 116.451 38.3032L113.692 42.945L116.681 47.8911C116.681 47.9671 116.681 47.967 116.681 47.967L116.604 48.0432H115.991C115.838 48.0432 115.761 47.9671 115.685 47.8911L113.232 43.4776Z" fill="#7F7D83"/>
<path d="M122.735 38.076C122.735 37.9237 122.812 37.8476 122.888 37.8476H123.348C123.425 37.8476 123.501 37.9237 123.501 38.076V46.294H123.578L124.727 44.4678L128.865 37.9998C128.942 37.9237 128.942 37.9237 128.942 37.8476C128.942 37.8476 129.019 37.7715 129.095 37.7715H129.632C129.708 37.7715 129.785 37.8476 129.785 37.9237C129.785 39.5217 129.785 41.1196 129.785 42.7176C129.785 44.3156 129.785 45.9135 129.785 47.5115C129.785 47.6636 129.708 47.6636 129.555 47.6636H129.095C129.019 47.6636 128.942 47.5875 128.942 47.5115V39.3695H129.019L127.793 41.2718C127.103 42.3371 126.413 43.4024 125.724 44.4678C125.034 45.5331 124.344 46.5984 123.655 47.6636C123.578 47.7398 123.578 47.7398 123.578 47.8159C123.578 47.8159 123.501 47.8159 123.425 47.8159H122.965C122.888 47.8159 122.812 47.7398 122.812 47.6636V38.076H122.735Z" fill="#7F7D83"/>
<path d="M133.845 47.5875C133.845 47.6636 133.845 47.7398 133.845 47.7398C133.845 47.7398 133.768 47.8159 133.692 47.8159H133.309C133.232 47.8159 133.155 47.8159 133.155 47.7398C133.155 47.7398 133.079 47.6636 133.079 47.5875V38.152C133.079 38.076 133.079 37.9998 133.155 37.9237C133.155 37.9237 133.232 37.8476 133.309 37.8476H133.692C133.845 37.8476 133.922 37.9237 133.922 38.076V42.0328H138.826V38.076C138.826 37.9998 138.826 37.9237 138.903 37.8476C138.903 37.8476 138.979 37.7715 139.056 37.7715H139.439C139.592 37.7715 139.669 37.8476 139.669 37.9998V47.4354C139.669 47.5115 139.669 47.5875 139.669 47.5875C139.669 47.5875 139.592 47.6636 139.516 47.6636H139.132C139.056 47.6636 138.979 47.6636 138.979 47.5875C138.979 47.5875 138.903 47.5115 138.903 47.4354V42.7937H133.998V47.5875H133.845Z" fill="#7F7D83"/>
<path d="M149.095 45.1516C149.095 45.5321 149.018 45.9126 148.865 46.2169C148.711 46.5213 148.558 46.8257 148.328 47.0541C148.098 47.2823 147.793 47.4345 147.486 47.5866C147.18 47.7389 146.873 47.7388 146.49 47.7388H142.965C142.812 47.7388 142.735 47.7389 142.735 47.6628C142.735 47.6628 142.659 47.5866 142.659 47.5106V38.1511C142.659 38.075 142.659 37.999 142.735 37.999C142.735 37.9229 142.812 37.9229 142.965 37.9229H146.107C147.026 37.9229 147.793 38.1512 148.253 38.6077C148.713 39.0643 148.941 39.6729 148.941 40.3578C148.941 40.5099 148.941 40.7383 148.865 40.9665C148.865 41.1947 148.788 41.347 148.635 41.5752C148.558 41.8035 148.406 41.9558 148.253 42.1841C148.098 42.3362 147.869 42.4885 147.563 42.6407C147.869 42.7167 148.176 42.8688 148.406 43.0211C148.635 43.1732 148.788 43.4016 148.941 43.6299C149.095 43.8581 149.171 44.0864 149.248 44.3908C149.095 44.6951 149.095 44.9234 149.095 45.1516ZM147.869 40.5099C147.869 39.9773 147.716 39.5207 147.333 39.2164C147.026 38.912 146.49 38.6838 145.8 38.6838H143.502V42.3362H145.8C146.49 42.3362 147.026 42.1841 147.333 41.8036C147.716 41.4232 147.869 41.0426 147.869 40.5099ZM148.176 45.0756C148.176 44.8474 148.098 44.543 148.023 44.3147C147.946 44.0864 147.793 43.8581 147.639 43.6299C147.486 43.4776 147.256 43.3255 147.026 43.1733C146.796 43.0972 146.49 43.0211 146.107 43.0211H143.502V47.0541H146.107C146.49 47.0541 146.873 46.9778 147.103 46.9017C147.333 46.8256 147.563 46.6736 147.716 46.4452C147.869 46.2931 147.946 46.0647 148.023 45.8364C148.176 45.5321 148.176 45.304 148.176 45.0756Z" fill="#7F7D83"/>
<path d="M152.62 43.0211V47.0541H157.142C157.219 47.0541 157.294 47.054 157.294 47.1301C157.294 47.1301 157.372 47.2061 157.372 47.2822V47.6628C157.372 47.7389 157.371 47.8149 157.294 47.8149C157.294 47.8149 157.219 47.8149 157.142 47.8149H152.008C151.931 47.8149 151.855 47.8149 151.855 47.8149C151.855 47.8149 151.778 47.7389 151.778 47.6628V38.1511C151.778 38.075 151.778 37.999 151.855 37.999C151.855 37.999 151.931 37.9229 152.008 37.9229H157.064C157.142 37.9229 157.219 37.9229 157.219 37.999C157.219 37.999 157.294 38.075 157.294 38.1511V38.5317C157.294 38.6077 157.294 38.6838 157.219 38.6838C157.219 38.6838 157.142 38.7598 157.064 38.7598H152.697V42.3362H156.682C156.759 42.3362 156.835 42.3362 156.835 42.3362C156.835 42.3362 156.912 42.4122 156.912 42.4884V42.7928C156.912 42.8689 156.912 42.945 156.835 42.945C156.835 42.945 156.759 43.0211 156.682 43.0211H152.62Z" fill="#7F7D83"/>
<path d="M160.665 42.9457C160.665 43.4784 160.665 43.9349 160.741 44.4676C160.818 45.0003 160.971 45.3808 161.124 45.8372C161.354 46.2177 161.584 46.5222 161.968 46.8265C162.351 47.0548 162.811 47.207 163.424 47.207C163.884 47.207 164.344 47.207 164.727 47.1309C165.109 47.0548 165.492 47.0548 165.875 46.9786C165.952 46.9786 166.029 46.9786 166.029 46.9786C166.029 46.9786 166.029 47.0548 166.105 47.0548L166.182 47.2831C166.182 47.3591 166.182 47.3591 166.182 47.4352C166.182 47.5114 166.105 47.5114 166.105 47.5114C165.952 47.5875 165.722 47.6636 165.492 47.6636C165.262 47.7396 165.032 47.7396 164.727 47.8157C164.497 47.8157 164.267 47.8918 164.037 47.8918C163.807 47.8918 163.654 47.8918 163.5 47.8918C162.734 47.8918 162.121 47.7396 161.661 47.5114C161.201 47.207 160.818 46.9027 160.511 46.4461C160.205 45.9895 160.051 45.4568 159.975 44.8481C159.898 44.2394 159.823 43.6306 159.823 42.9457C159.823 42.2609 159.898 41.6522 159.975 40.9673C160.051 40.3586 160.281 39.8259 160.511 39.2933C160.818 38.8367 161.124 38.4563 161.661 38.1519C162.121 37.8476 162.734 37.6953 163.577 37.6953C163.73 37.6953 163.884 37.6953 164.114 37.6953C164.344 37.6953 164.572 37.6953 164.802 37.7714C165.032 37.7714 165.262 37.8476 165.569 37.9236C165.799 37.9997 166.029 37.9997 166.182 38.0758C166.259 38.0758 166.259 38.1519 166.259 38.1519C166.259 38.228 166.259 38.228 166.259 38.304L166.182 38.5324C166.182 38.6085 166.182 38.6085 166.105 38.6085C166.105 38.6085 166.029 38.6845 165.952 38.6085C165.569 38.5324 165.186 38.5324 164.802 38.4563C164.419 38.3801 163.96 38.3801 163.5 38.3801C162.887 38.3801 162.351 38.5324 161.968 38.7606C161.584 38.989 161.278 39.3694 161.124 39.7499C160.971 40.1304 160.818 40.5868 160.741 41.1195C160.665 41.8805 160.665 42.4132 160.665 42.9457Z" fill="#7F7D83"/>
<path d="M168.022 38.6847C167.945 38.6847 167.868 38.6847 167.868 38.6086C167.868 38.6086 167.792 38.5325 167.792 38.4565V38.076C167.792 37.9999 167.792 37.9238 167.868 37.9238C167.868 37.9238 167.945 37.8477 168.022 37.8477H174.075C174.152 37.8477 174.229 37.8477 174.229 37.9238C174.229 37.9238 174.305 37.9999 174.305 38.076V38.4565C174.305 38.5325 174.305 38.6086 174.229 38.6086C174.229 38.6086 174.152 38.6847 174.075 38.6847H171.47V47.5876C171.47 47.6637 171.47 47.7398 171.47 47.7398C171.47 47.7398 171.393 47.8159 171.316 47.8159H170.933C170.856 47.8159 170.78 47.8159 170.78 47.7398C170.78 47.7398 170.703 47.6637 170.703 47.5876V38.6847H168.022Z" fill="#7F7D83"/>
<path d="M176.528 38.076C176.528 37.9237 176.604 37.8476 176.681 37.8476H177.141C177.218 37.8476 177.294 37.9237 177.294 38.076V46.294H177.371L178.52 44.4678L182.658 37.9998C182.735 37.9237 182.735 37.9237 182.735 37.8476C182.735 37.8476 182.811 37.7715 182.888 37.7715H183.425C183.501 37.7715 183.578 37.8476 183.578 37.9237C183.578 39.5217 183.578 41.1196 183.578 42.7176C183.578 44.3156 183.578 45.9135 183.578 47.5115C183.578 47.6636 183.501 47.6636 183.348 47.6636H182.888C182.811 47.6636 182.735 47.5875 182.735 47.5115V39.3695H182.658L181.432 41.2718C180.743 42.3371 180.053 43.4024 179.364 44.4678C178.674 45.5331 177.984 46.5984 177.294 47.6636C177.218 47.7398 177.218 47.7398 177.218 47.8159C177.218 47.8159 177.141 47.8159 177.064 47.8159H176.604C176.528 47.8159 176.451 47.7398 176.451 47.6636V38.076H176.528Z" fill="#7F7D83"/>
<path d="M193.156 47.8149H186.949C186.796 47.8149 186.796 47.7389 186.796 47.6628V38.0751C186.796 37.9229 186.873 37.9229 186.949 37.9229H187.486C187.562 37.9229 187.639 37.999 187.639 38.0751V46.9779H192.543V38.0751C192.543 37.9229 192.62 37.9229 192.696 37.9229H193.233C193.31 37.9229 193.386 37.999 193.386 38.0751V46.9779L193.923 47.0541C193.999 47.0541 194.076 47.1301 194.076 47.1301C194.076 47.2062 194.076 47.2061 194.076 47.2822L193.923 49.7173C193.923 49.7935 193.923 49.8693 193.846 49.9455C193.846 49.9455 193.769 50.0217 193.693 50.0217H193.386C193.31 50.0217 193.31 50.0216 193.233 49.9455C193.233 49.9455 193.156 49.8694 193.156 49.7173V47.8149Z" fill="#7F7D83"/>
<path d="M196.528 38.076C196.528 37.9237 196.605 37.8476 196.681 37.8476H197.141C197.218 37.8476 197.295 37.9237 197.295 38.076V46.294H197.371L198.521 44.4678L202.659 37.9998C202.735 37.9237 202.735 37.9237 202.735 37.8476C202.735 37.8476 202.812 37.7715 202.888 37.7715H203.425C203.502 37.7715 203.578 37.8476 203.578 37.9237C203.578 39.5217 203.578 41.1196 203.578 42.7176C203.578 44.3156 203.578 45.9135 203.578 47.5115C203.578 47.6636 203.502 47.6636 203.348 47.6636H202.888C202.812 47.6636 202.735 47.5875 202.735 47.5115V39.3695H202.659L201.432 41.2718C200.742 42.3371 200.053 43.4024 199.363 44.4678C198.674 45.5331 197.984 46.5984 197.295 47.6636C197.218 47.7398 197.218 47.7398 197.218 47.8159C197.218 47.8159 197.141 47.8159 197.065 47.8159H196.605C196.528 47.8159 196.451 47.7398 196.451 47.6636V38.076H196.528Z" fill="#7F7D83"/>
<path d="M206.719 38.075C206.719 37.9229 206.796 37.8468 206.872 37.8468H207.332C207.409 37.8468 207.485 37.9229 207.485 38.075V46.2931H207.562L208.712 44.4669L212.849 37.999C212.926 37.9229 212.926 37.9229 212.926 37.8468C212.926 37.8468 213.003 37.7707 213.079 37.7707H213.616C213.691 37.7707 213.768 37.8468 213.768 37.9229C213.768 39.5208 213.768 41.1188 213.768 42.7168C213.768 44.3147 213.768 45.9126 213.768 47.5106C213.768 47.6628 213.691 47.6628 213.539 47.6628H213.079C213.003 47.6628 212.926 47.5867 212.926 47.5106V39.3687H212.849L211.623 41.271C210.933 42.3363 210.243 43.4016 209.554 44.4669C208.864 45.5321 208.175 46.5975 207.485 47.6628C207.409 47.7389 207.409 47.7389 207.409 47.8149C207.409 47.8149 207.332 47.8149 207.255 47.8149H206.796C206.719 47.8149 206.642 47.7389 206.642 47.6628V38.075H206.719ZM210.167 37.5425C209.784 37.5425 209.4 37.4663 209.017 37.2381C208.635 37.0097 208.327 36.7054 208.175 36.3249C208.175 36.2488 208.098 36.2488 208.098 36.1727C208.098 36.0967 208.098 36.0206 208.098 36.0206L208.327 35.8683C208.405 35.7922 208.482 35.7922 208.557 35.9445C208.712 36.0967 208.787 36.2488 208.942 36.401C209.094 36.5532 209.17 36.6293 209.324 36.7054C209.477 36.7815 209.554 36.8576 209.707 36.8576C209.86 36.8576 210.014 36.9336 210.167 36.9336C210.473 36.9336 210.703 36.8576 210.933 36.7054C211.163 36.5532 211.393 36.3249 211.7 35.9445C211.776 35.8683 211.853 35.8683 211.93 35.8683L212.16 36.0206C212.236 36.0967 212.236 36.0967 212.16 36.1727C212.16 36.2488 212.083 36.3249 212.083 36.3249C211.853 36.7815 211.546 37.0859 211.24 37.3141C210.933 37.4663 210.55 37.5425 210.167 37.5425Z" fill="#7F7D83"/>
</svg>
