<svg width="171" height="61" viewBox="0 0 171 61" fill="none" xmlns="http://www.w3.org/2000/svg">
<path d="M52.0537 20.5215H59.1048L64.7892 35.2723L70.427 20.5215H77.2297V40.1892H72.7101V25.1492L66.8238 40.1892H62.18L56.2937 25.2405V40.1892H52.0692V20.5215H52.0537Z" fill="#7F7D83"/>
<path d="M106.739 20.5215H122.286V40.1892H117.471V24.6621H111.134C111.088 27.4174 111.01 31.1317 110.932 33.202C110.761 38.3625 109.224 40.1892 104.72 40.1892H102.561V36.0486H103.757C105.792 36.0486 106.444 35.1505 106.584 32.3495C106.692 29.3354 106.739 23.3681 106.739 20.5215Z" fill="#7F7D83"/>
<path d="M146.871 20.5215H165.151V24.6621H158.395V40.1892H153.627V24.6621H146.871V20.5215Z" fill="#7F7D83"/>
<path d="M39.5968 20.1104H37.8729C33.7416 20.1104 30.6043 22.5764 29.8899 26.2451L34.2852 26.9301C34.8909 25.1795 36.2732 23.9921 38.0127 23.916C38.3388 23.9008 38.6805 23.9008 39.0067 23.916C41.6004 24.0074 42.7807 25.2252 42.7807 28.2393C37.8574 28.2393 34.5026 28.0109 32.0176 29.6093C29.9986 30.9184 29.1289 32.3646 29.1289 34.648C29.1289 37.9665 31.7536 40.5848 35.9936 40.5848H36.5838C39.5813 40.5848 42.0042 39.4431 42.9826 38.0579V40.1738H47.409V28.3306C47.4245 23.7638 44.924 20.1104 39.5968 20.1104ZM36.8944 36.7487C35.0152 36.7031 33.928 35.6222 33.928 34.2827C33.928 33.1714 34.4405 32.6082 35.1239 32.2276C35.8383 31.8166 36.7702 31.6796 38.199 31.6339C39.5813 31.5882 40.6996 31.5274 42.8584 31.5274C42.8584 34.8763 40.6996 36.5661 38.0282 36.7487C37.6555 36.7639 37.2827 36.7639 36.8944 36.7487Z" fill="#7F7D83"/>
<path d="M145.753 31.6795V29.8375C145.753 23.4897 141.684 20.2168 136.434 20.2168H135.409C129.756 20.2168 126.153 23.992 125.966 29.32C125.935 30.0963 125.935 30.4312 125.966 31.4968C126.09 36.7943 129.896 40.3716 134.959 40.5086C135.891 40.5391 135.766 40.5391 136.636 40.5086C141.047 40.3868 144.386 37.8903 145.38 34.6327L141.109 33.902C140.068 35.9418 138.08 36.7334 136.481 36.8095C136.124 36.8247 135.766 36.8247 135.394 36.8095C132.893 36.7029 130.672 34.8001 130.672 32.0144V31.7099L145.753 31.6795ZM135.331 23.9159C135.72 23.8855 136.124 23.8855 136.527 23.9159C138.624 24.0225 140.829 25.3621 141.047 28.0108H130.719C130.952 25.6361 132.893 24.0529 135.331 23.9159Z" fill="#7F7D83"/>
<path d="M101.241 28.6197C101.132 23.855 97.2177 20.2168 92.0457 20.2168H90.1667C84.995 20.2168 81.0812 23.8702 80.9725 28.6502C80.9414 29.9745 80.9414 30.7509 80.9725 32.0753C81.0812 36.8552 84.995 40.5086 90.1667 40.5086H92.0457C97.2177 40.5086 101.132 36.8704 101.241 32.0753C101.256 30.7357 101.256 29.9441 101.241 28.6197ZM96.5037 31.8165C96.4417 34.6022 94.3917 36.4898 91.6117 36.6268C91.2697 36.6573 90.9277 36.6573 90.5867 36.6268C87.7907 36.4898 85.7561 34.6022 85.6939 31.8165C85.6629 30.6595 85.6629 30.005 85.6939 28.8481C85.7561 26.0927 87.7907 24.2051 90.5867 24.0681C90.9277 24.0377 91.2697 24.0377 91.6117 24.0681C94.3917 24.2051 96.4567 26.0927 96.5037 28.8785C96.5347 30.0354 96.5347 30.6748 96.5037 31.8165Z" fill="#7F7D83"/>
<path d="M21.6747 33.2474C21.1156 35.0741 19.6246 36.3224 17.6055 36.5964C17.0619 36.6725 16.5183 36.6725 15.9903 36.5964C13.4898 36.2615 11.7348 34.4195 11.6726 31.8317C11.6416 30.6748 11.6416 30.0202 11.6726 28.8633C11.7348 26.2602 13.583 24.3574 16.1301 24.0834C16.5494 24.0377 16.9532 24.0377 17.3726 24.0834C19.5159 24.3117 21.1156 25.5752 21.7058 27.478L26.3651 26.5951C25.3556 22.8655 21.9077 20.2168 17.4968 20.2168H16.1611C10.9737 20.2168 7.05985 23.855 6.95115 28.6349C6.93555 29.9593 6.93555 30.7357 6.95115 32.06C7.05985 36.8399 10.9737 40.4934 16.1456 40.4934H17.4813C21.9853 40.4934 25.4643 37.7381 26.3806 33.8715L21.6747 33.2474Z" fill="#7F7D83"/>
</svg>
