<svg width="182" height="61" viewBox="0 0 182 61" fill="none" xmlns="http://www.w3.org/2000/svg">
<path d="M48.9914 16.9766C49.9674 18.2361 50.7936 19.6044 51.4533 21.0541L32.7391 34.8248L24.918 29.9308V24.043L32.7391 28.937L48.9914 16.9766Z" fill="#7F7D83"/>
<path fill-rule="evenodd" clip-rule="evenodd" d="M41.6412 16.4962L45.6357 13.5572C41.9847 10.6061 37.4273 8.99962 32.7294 9.00784V9.01002C30.0329 9.00753 27.3627 9.53632 24.8715 10.5661C22.5016 11.5457 20.3383 12.9603 18.493 14.7354C16.5754 16.5723 15.0326 18.7655 13.9527 21.1939C12.7882 23.8123 12.1878 26.6456 12.1904 29.5103C12.1904 29.5135 12.1904 29.5166 12.1904 29.5198C12.1884 32.2122 12.7189 34.8784 13.7515 37.3655C14.6654 39.5668 15.9567 41.5894 17.5651 43.3436C19.4769 45.4382 21.804 47.1137 24.3992 48.2635C27.0237 49.4261 29.8636 50.0252 32.7349 50.0218C35.4322 50.0245 38.1035 49.495 40.5953 48.4641C42.7723 47.5635 44.7748 46.2954 46.5162 44.7179L46.5205 44.7225C48.6517 42.8019 50.3548 40.4557 51.5192 37.8361C52.6838 35.2163 53.2837 32.3815 53.2801 29.5154C53.2827 28.2833 53.1747 27.0533 52.9574 25.8404L48.5354 29.0935V29.5154C48.5366 31.7189 48.0738 33.8981 47.1773 35.9116C46.3875 37.6855 45.2763 39.2959 43.9022 40.6631L43.8991 40.6601C42.435 42.1269 40.6951 43.2905 38.7793 44.0842C36.8635 44.878 34.8094 45.2861 32.7351 45.2851C32.6828 45.2851 32.6306 45.2851 32.5784 45.2849C32.3939 45.2832 32.2095 45.2782 32.0254 45.27C31.9985 45.2682 31.9716 45.2663 31.9446 45.2642L31.9445 45.2661C30.0078 45.1698 28.103 44.7174 26.3268 43.9294C24.5501 43.1413 22.9369 42.0328 21.5671 40.6619L21.57 40.659C20.1003 39.1978 18.9343 37.461 18.1392 35.5486C17.344 33.6361 16.9354 31.5856 16.9367 29.515M16.9367 29.4867C16.937 29.3004 16.9405 29.1149 16.9473 28.9302C17.0211 26.9269 17.4779 24.9541 18.295 23.1189C19.0845 21.3459 20.1947 19.7362 21.5678 18.3694L21.5698 18.3713C23.0337 16.9037 24.7737 15.7394 26.6899 14.9454C28.6061 14.1514 30.6606 13.7433 32.7354 13.7446C32.9999 13.7446 33.2628 13.7543 33.5242 13.7672L33.5244 13.7631C36.4261 13.9062 39.237 14.8498 41.6412 16.4962" fill="#7F7D83"/>
<path d="M130.75 20.736L136.628 16.4619H116.955V42.1455H136.628V37.8714H122.568V31.2925H134.562V27.0184H122.568V20.736H130.75Z" fill="#7F7D83"/>
<path d="M103.717 26.4674H96.8867V20.7343H107.787L113.662 16.4473H91.2764V42.1308H102.994C109.564 42.1308 113.335 39.1922 113.335 34.0672C113.335 29.1643 109.919 26.4674 103.717 26.4674ZM102.742 37.8554H96.8867V30.7388H102.742C106.295 30.7388 107.961 31.9314 107.961 34.2972C107.961 36.6628 106.188 37.8554 102.742 37.8554Z" fill="#7F7D83"/>
<path d="M151.09 16.458H140.381V42.1415H145.993V34.8658H151.09C157.922 34.8658 162.149 31.3176 162.149 25.6482C162.149 19.9789 157.922 16.458 151.09 16.458ZM150.971 30.5885H145.993V20.7354H150.971C154.565 20.7354 156.548 22.4861 156.548 25.6639C156.548 28.8416 154.565 30.5885 150.971 30.5885Z" fill="#7F7D83"/>
<path d="M82.8536 36.0798C81.4036 36.8548 79.7791 37.256 78.1304 37.2465C73.1955 37.2465 69.6156 33.7695 69.6156 28.9817C69.6156 24.1938 73.1955 20.7093 78.1304 20.7093C79.91 20.6795 81.6526 21.212 83.1038 22.2293L87.0301 19.3755L86.7646 19.1893C84.4742 17.202 81.4139 16.1494 77.911 16.1494C74.1116 16.1494 70.6665 17.411 68.2067 19.7061C66.9629 20.8878 65.9793 22.3099 65.317 23.8836C64.6547 25.4572 64.3279 27.1486 64.3573 28.8524C64.331 30.5736 64.6562 32.2823 65.3137 33.8766C65.9711 35.4709 66.9471 36.9181 68.1836 38.1319C70.6549 40.5182 74.0924 41.8329 77.8648 41.8329C81.8065 41.8329 85.2518 40.4763 87.5845 38.0065L84.07 35.4225L82.8536 36.0798Z" fill="#7F7D83"/>
</svg>
