<svg width="189" height="61" viewBox="0 0 189 61" fill="none" xmlns="http://www.w3.org/2000/svg">
<path d="M48.916 27.2916H55.1278C56.01 27.2554 56.8936 27.2837 57.7718 27.3767C59.7249 27.6428 61.7033 28.5189 61.7033 30.9252C61.7033 32.9397 60.5358 33.8823 59.1248 34.1891V34.3111C61.1651 34.6807 62.3361 35.7896 62.3361 37.9742C62.3361 41.5596 58.9684 42.5503 56.2371 42.6834C55.5715 42.6834 54.7168 42.6834 54.1422 42.6834H48.916V27.2916ZM53.2803 39.7743H55.0514C56.5498 39.7743 58.0227 39.316 58.0227 37.8523C58.0227 36.4771 56.9099 36.004 54.8368 36.004H53.2693L53.2803 39.7743ZM53.3711 33.2724H54.6877C56.5062 33.2724 57.5682 32.9028 57.5682 31.7162C57.5682 30.7737 56.9099 30.2377 55.135 30.2377H53.3602L53.3711 33.2724Z" fill="#7F7D83"/>
<path d="M27.3745 43.0043C20.8026 43.0043 17.2275 38.199 17.2275 32.1369C17.2275 26.0342 21.4318 21.0293 28.3383 21.0293C30.1567 21.0293 31.757 21.2733 33.1427 22.0052V25.9418C31.7507 25.0632 30.1404 24.6078 28.5019 24.6296C23.8176 24.6296 21.9883 28.1374 21.9883 31.8338C21.9883 35.9516 24.2722 39.2266 28.08 39.2266C29.7258 39.2287 31.3425 38.786 32.7644 37.9439L33.9064 41.0563C31.9767 42.359 29.7055 43.0404 27.3891 43.0116L27.3745 43.0043ZM101.542 43.0043C96.679 43.0043 94.188 39.3708 94.188 35.0386C94.188 30.1853 97.491 26.9805 101.906 26.9805C103.855 26.9805 104.881 27.376 105.688 27.8639V31.3459C104.794 30.6247 103.679 30.2465 102.539 30.2776C100.047 30.2776 98.516 32.1259 98.516 34.8242C98.516 37.2343 99.684 39.5852 102.473 39.5852C103.508 39.5179 104.515 39.2146 105.419 38.698L106.437 41.5368C104.96 42.4536 103.272 42.9632 101.542 43.0153V43.0043ZM114.998 30.7656V42.6975H110.675V30.7656H106.47V27.2873H119.741L118.65 30.7656H114.998ZM135.791 29.0948C135.791 34.4657 135.58 37.2712 134.619 38.5538C134.123 39.1967 133.403 39.6225 132.608 39.7441L133.808 43.0116C135.14 42.9508 136.407 42.408 137.38 41.4814C138.762 40.11 139.217 38.3727 139.424 36.5393C139.617 34.8781 139.718 33.2072 139.726 31.5344V30.7656H143.105V42.6975H147.429V27.2873H135.791V29.0948ZM37.736 36.1956C37.827 38.2729 39.7509 39.5519 41.7621 39.5519C43.2169 39.5519 44.3407 39.2783 46.0573 38.443L47.0175 41.2226C45.2346 42.3845 43.16 42.9993 41.042 42.9932C35.634 42.9932 33.4045 39.0861 33.4045 35.0275C33.4045 30.6953 35.9503 26.9694 40.4892 26.9694C44.6353 26.9694 47.5193 30.0818 47.5193 34.8427V36.1844L37.736 36.1956ZM40.3801 30.2037C38.638 30.2037 37.6452 31.7894 37.6452 33.1941H43.1005C43.0096 31.7155 42.1986 30.2037 40.3692 30.2037H40.3801ZM67.5224 36.214C67.6133 38.2914 69.5372 39.5703 71.5484 39.5703C73.0031 39.5703 74.1307 39.2968 75.8436 38.4614L76.8037 41.2411C75.0212 42.4037 72.9463 43.0186 70.8283 43.0116C65.4238 43.0116 63.1908 39.1046 63.1908 35.046C63.1908 30.7138 65.7366 26.9878 70.2755 26.9878C74.418 26.9878 77.302 30.1002 77.302 34.8611V36.203L67.5224 36.214ZM70.1664 30.2037C68.4243 30.2037 67.4169 31.771 67.4169 33.1609H72.8722C72.7813 31.6822 71.9666 30.1704 70.1373 30.1704L70.1664 30.2037ZM128.03 41.3446C127.48 41.8943 126.827 42.3261 126.109 42.6144C125.392 42.9027 124.625 43.0415 123.855 43.0227C120.974 43.0227 118.81 41.0674 118.81 38.0142C118.81 34.7503 121.396 33.0721 125.237 32.9502L127.782 32.8577V32.5546C127.782 30.9356 126.495 30.2961 124.997 30.2961C123.642 30.2896 122.312 30.659 121.149 31.3644L119.828 28.6771C121.902 27.3057 123.88 26.999 125.953 26.999C129.954 26.999 132.081 28.6143 132.081 32.6766V42.6975H128.717L128.03 41.3446ZM125.847 35.8C123.986 35.8628 123.12 36.5024 123.12 37.6483C123.12 38.7941 123.928 39.5703 125.397 39.5703C126.234 39.6104 127.06 39.363 127.743 38.868V35.7483L125.847 35.8ZM83.0192 42.3611V48.863L78.6913 50.2048V27.2873H82.3282L82.8082 28.6882C83.9176 27.8048 85.2123 26.9805 86.8925 26.9805C90.3767 26.9805 93.108 29.6641 93.108 34.5506C93.108 39.1268 90.4058 43.0043 85.9324 43.0043C84.9257 43.0315 83.9275 42.8108 83.0229 42.3611H83.0192ZM83.0192 31.9225V39.2192C83.5624 39.6072 84.2102 39.8151 84.874 39.8143C87.8163 39.8143 88.7765 37.0975 88.7765 34.4731C88.7838 31.3126 87.7835 30.2037 86.0197 30.2037C84.8813 30.2037 83.532 31.15 83.0192 31.941V31.9225Z" fill="#7F7D83"/>
<path d="M153.55 32.3036V26.626L149.225 27.9862V42.7238H154.75C158.772 42.7238 162.526 41.6148 162.526 37.3824C162.526 33.7822 159.496 32.3184 155.772 32.3184L153.55 32.3036ZM153.55 39.6594V35.3568H155.005C156.539 35.3568 158.22 35.6008 158.22 37.4305C158.22 39.2602 156.765 39.6484 155.066 39.6484L153.55 39.6594Z" fill="#7F7D83"/>
<path d="M169.08 17.216C169.362 17.117 169.63 16.9762 169.872 16.7983C170.301 15.6685 170.665 14.5146 170.963 13.3422C171.352 11.841 171.624 10.3108 171.774 8.76609C171.893 7.53688 171.893 6.29893 171.774 5.06972C171.658 3.93123 171.367 2.77426 170.684 2.11261C169.999 1.45096 168.887 1.15155 167.796 1.05175C166.583 0.966658 165.366 0.995117 164.158 1.13677C164.425 1.25902 164.67 1.42236 164.886 1.62099C165.555 2.24198 165.865 3.30284 165.999 4.34152C166.105 5.16727 166.143 6.00069 166.112 6.83289C166.041 8.53679 165.786 10.2276 165.352 11.8748C165.024 13.188 164.59 14.4713 164.053 15.7116C164.738 16.1441 165.456 16.521 166.199 16.839C167.163 17.2382 168.221 17.4932 169.08 17.216Z" fill="#7F7D83"/>
<path d="M153.306 14.0683C153.247 14.3687 153.233 14.6767 153.266 14.9813C154.014 15.9109 154.813 16.797 155.659 17.6353C156.75 18.7346 157.926 19.7433 159.176 20.6516C160.165 21.3627 161.215 21.9813 162.315 22.4997C163.336 22.9766 164.471 23.2834 165.373 23.032C166.275 22.7807 167.083 21.9231 167.726 20.9732C168.416 19.9529 169.004 18.8658 169.483 17.7278C169.238 17.9134 168.966 18.0582 168.676 18.1565C167.817 18.4374 166.759 18.1787 165.806 17.7869C165.049 17.4643 164.32 17.0799 163.624 16.6373C162.211 15.7212 160.9 14.6516 159.714 13.4473C158.759 12.5021 157.882 11.4785 157.092 10.3867C156.383 10.7764 155.706 11.2226 155.066 11.7211C154.248 12.368 153.499 13.1738 153.306 14.0683Z" fill="#7F7D83"/>
<path d="M163.861 1.74308C163.643 1.55172 163.398 1.39473 163.133 1.27734C161.95 1.46356 160.778 1.72153 159.624 2.04988C158.153 2.44832 156.716 2.9637 155.325 3.59127C154.221 4.10308 153.169 4.72202 152.182 5.43945C151.262 6.1122 150.407 6.95867 150.175 7.88646C149.943 8.81425 150.28 9.96756 150.764 11.0137C151.289 12.1211 151.917 13.1745 152.641 14.1592C152.606 13.851 152.62 13.539 152.68 13.2351C152.874 12.3369 153.623 11.5311 154.438 10.8916C155.095 10.3858 155.791 9.93575 156.522 9.54614C158.008 8.75669 159.577 8.13686 161.198 7.69795C162.472 7.32969 163.774 7.06883 165.09 6.918C165.12 6.09442 165.082 5.26977 164.977 4.45252C164.843 3.41384 164.522 2.35298 163.861 1.74308Z" fill="#7F7D83"/>
</svg>
