<svg width="173" height="61" viewBox="0 0 173 61" fill="none" xmlns="http://www.w3.org/2000/svg">
<path d="M43.8391 27.9751C43.8391 27.9751 44.5574 20.4511 44.6305 19.7145C44.6517 19.2861 44.5794 18.8583 44.4179 18.4564C44.2563 18.0544 44.0089 17.6866 43.6902 17.3749C43.3715 17.0632 42.9881 16.814 42.5629 16.642C42.1377 16.4702 41.6794 16.379 41.2154 16.3742H20.6578C19.71 16.3135 18.7745 16.5998 18.0534 17.1712C17.3324 17.7426 16.8837 18.5531 16.8044 19.4276C16.7132 20.3105 15.0086 38.5019 14.905 39.5478C14.8444 39.9931 14.8858 40.4454 15.0267 40.8751C15.1676 41.3048 15.4048 41.7023 15.7229 42.0417C16.041 42.381 16.4327 42.655 16.8729 42.8452C17.313 43.0357 17.7917 43.1383 18.2776 43.1467H38.7133C41.4284 43.1467 42.4815 41.8196 42.7128 39.7726C42.8528 38.5468 43.5225 31.141 43.5225 31.141H31.1648L30.6353 36.8655H27.5063L28.8516 22.6554H31.9806L31.4814 27.9751H43.8391Z" fill="#7F7D83"/>
<path d="M61.6561 18.6649C61.2265 19.8343 57.7016 30.2305 57.7016 30.2305L59.2702 16.3652H47.1686L44.6338 43.1457H53.7533C56.0436 43.1457 56.8249 41.9199 57.2066 40.936C57.6659 39.7665 61.0237 31.0177 61.0237 31.0177L59.7892 43.1457H71.8968L74.3899 16.3765H64.8888C64.1584 16.3715 63.4465 16.5927 62.8625 17.0062C62.2784 17.4195 61.8545 18.0023 61.6561 18.6649Z" fill="#7F7D83"/>
<path d="M120.92 16.3662L119.843 28.578H116.923L118 16.3662H106.494C106.494 16.3662 105.388 29.3037 105.269 30.5468C105.133 32.0374 105.984 34.1468 108.53 34.1468H119.355L119.117 36.8635H104.713L104.146 43.1467H127.05C128.604 43.1467 130.101 42.1398 130.305 39.9911C130.436 38.6129 132.415 16.3662 132.415 16.3662H120.92Z" fill="#7F7D83"/>
<path d="M152.073 16.3662H136.286L133.902 43.1467H145.526L146.265 34.8593H157.561C159.561 34.8593 160.884 33.8579 161.102 31.5625C161.183 30.6679 162.105 20.5184 162.162 19.6238C162.305 17.6433 160.701 16.3662 158.725 16.3662H152.073ZM146.763 29.3064L147.336 22.6619H150.252L149.679 29.3064H146.763Z" fill="#7F7D83"/>
<path d="M88.1388 25.3614L88.3952 22.6496H103.551L104.147 16.3652H76.8708L74.3906 43.1457H98.5365C100.075 43.1457 101.738 42.2905 101.953 40.0514C102.114 38.3635 102.859 30.4082 102.996 28.9622C103.175 27.0324 101.875 25.3614 99.3295 25.3614H88.1388ZM90.0944 37.5758H87.0062L87.6023 30.9369H90.6846L90.0944 37.5758Z" fill="#7F7D83"/>
</svg>
