<svg width="168" height="61" viewBox="0 0 168 61" fill="none" xmlns="http://www.w3.org/2000/svg">
<path d="M74.3154 22.0898V32.1086C74.2349 33.5215 73.8651 34.9161 72.2568 34.9161V38.586C77.7248 38.586 77.9017 36.2005 77.9017 32.0903V25.7597H84.5755V38.6043H88.2905V22.0898H74.3154Z" fill="#7F7D83"/>
<path d="M52.6601 27.3561C52.6601 22.1632 48.3888 22.1449 44.8125 22.0898H36.626V38.6043H40.5413V32.6224H44.7956C48.3719 32.5673 52.6601 32.5673 52.6601 27.3561ZM44.6769 29.4663H40.5583V25.2643H44.6769C47.5414 25.2643 48.7109 25.2643 48.7109 27.3561C48.7109 29.4663 47.5414 29.4663 44.6769 29.4663Z" fill="#7F7D83"/>
<path d="M26.1033 29.87L21.8654 22.0898H17.0293L23.8597 34.072L21.5164 38.6043H26.1365L34.8449 22.0898H30.2248L26.1033 29.87Z" fill="#7F7D83"/>
<path d="M57.9168 22.0898L50.8789 38.6043H55.1562L56.4513 35.4299H64.5798L65.9261 38.6043H70.476L63.1484 22.0898H57.9168ZM57.7634 32.2554L60.4389 25.723L63.2336 32.2554H57.7634Z" fill="#7F7D83"/>
<path d="M148.404 22.0898H144.566L139.965 35.228L135.347 22.0898H129.267V38.6043H133.105V26.6405L137.473 38.6043H142.357L146.809 26.4386V38.6043H150.646V22.0898H148.404Z" fill="#7F7D83"/>
<path d="M114.106 33.5215V22.0898H110.264V38.6043H114.489L122.456 27.3561V38.6043H126.298V22.0898H122.007L114.106 33.5215Z" fill="#7F7D83"/>
<path d="M103.335 22.0898L99.427 27.1726L95.651 22.0898H90.667L96.926 30.4388L90.667 38.6043H94.972L99.046 33.3931L102.904 38.6043H107.889L101.579 30.1636L107.889 22.0898H103.335Z" fill="#7F7D83"/>
</svg>
