<svg width="63" height="61" viewBox="0 0 63 61" fill="none" xmlns="http://www.w3.org/2000/svg">
<path d="M47.4422 14.6126C44.8404 12.0107 40.6403 12.0107 32.2029 12.0107H30.7161C22.3159 12.0107 18.1158 12.0107 15.4768 14.6126C12.875 17.2144 12.875 21.4145 12.875 29.8519V31.3386C12.875 39.7388 12.875 43.9389 15.4768 46.5779C18.0787 49.1798 22.2788 49.1798 30.7161 49.1798H32.2029C40.6031 49.1798 44.8032 49.1798 47.4422 46.5779C50.044 43.9761 50.044 39.776 50.044 31.3386V29.8519C50.044 21.4517 50.044 17.2516 47.4422 14.6126ZM39.5624 38.7725C38.6331 35.8361 36.2543 33.5688 33.1693 33.2343V38.7725H32.6861C24.2116 38.7725 19.3796 32.9741 19.1937 23.3101H23.431C23.5797 30.4094 26.7019 33.4201 29.1922 34.0148V23.3101H33.2065V29.443C35.6596 29.1828 38.2243 26.3952 39.0792 23.3101H43.0934C42.4244 27.1014 39.6367 29.8891 37.6668 31.0413C39.6367 31.9705 42.8332 34.3865 44.0227 38.8096H39.5624V38.7725Z" fill="#7F7D83"/>
</svg>
