<svg width="160" height="61" viewBox="0 0 160 61" fill="none" xmlns="http://www.w3.org/2000/svg">
<g clip-path="url(#clip0_536_13693)">
<path d="M30.4517 16.1036H27.9274C23.3094 16.1036 20.8634 18.4049 20.8634 21.7892C20.8634 25.6377 22.5463 27.4362 26.0098 29.7182L28.8667 31.5941L20.6481 43.6615H14.5234L21.9005 32.8704C17.6542 29.9116 15.267 27.0301 15.267 22.118C15.267 15.9682 19.611 11.791 27.8883 11.791H36.1067V43.6808H30.4517V16.1036Z" fill="#7F7D83"/>
<path d="M81.9538 20.6094H65.732V22.5819C65.732 28.2289 65.3602 35.5196 63.4034 39.3681H61.6816V48.9602H66.8278V43.6807H79.2926V48.9602H84.4389V39.3681H81.9538V20.6094ZM76.3965 39.3681H68.5498C70.0957 35.8871 70.5066 29.6019 70.5066 25.5987V24.9026H76.3965V39.3681Z" fill="#7F7D83"/>
<path d="M53.7763 29.7363H46.3404V20.6084H40.7832V43.6797H46.3404V34.0489H53.7763V43.6797H59.3335V20.6084H53.7763V29.7363Z" fill="#7F7D83"/>
<path d="M139.874 24.459C142.027 24.459 144.121 25.1939 145.255 25.8901V21.2488C144.082 20.6107 142.027 20.1465 139.267 20.1465C132.165 20.1465 128.466 25.1552 128.466 32.1753C128.466 39.8915 132.067 44.146 139.503 44.146C142.066 44.146 143.906 43.682 145.255 42.715V38.2671C143.847 39.234 142.164 39.8335 139.836 39.8335C135.863 39.8335 134.22 36.7973 134.22 32.0399C134.22 27.0311 136.216 24.459 139.874 24.459Z" fill="#7F7D83"/>
<path d="M127.724 20.6084H122.108L114.26 31.2447V20.6084H108.703V43.6797H114.26V32.3471L122.479 43.6797H128.8L119.857 31.2447L127.724 20.6084Z" fill="#7F7D83"/>
<path d="M95.7883 20.1465C89.0177 20.1465 85.7891 25.2326 85.7891 32.214C85.7891 40.2396 89.8013 44.146 96.9036 44.146C100.465 44.146 103.068 43.2372 104.712 42.1348V37.6869C102.99 38.8279 100.094 39.8529 97.3738 39.8529C93.3039 39.8529 91.7579 37.977 91.5233 34.1092H104.927V31.2277C104.946 23.1633 101.366 20.1465 95.7883 20.1465ZM99.291 30.048H91.5425C91.679 26.3736 93.0299 24.459 95.7105 24.459C98.4699 24.459 99.3112 26.7023 99.3112 29.6032V30.048H99.291Z" fill="#7F7D83"/>
</g>
<defs>
<clipPath id="clip0_536_13693">
<rect width="160" height="61" fill="white"/>
</clipPath>
</defs>
</svg>
