<svg width="21" height="26" viewBox="0 0 21 26" fill="none" xmlns="http://www.w3.org/2000/svg">
<path d="M12.0833 1V7.4C12.0833 8.28366 12.7922 9 13.6667 9H20M4.5625 1.4V4.2C4.5625 4.64183 4.91694 5 5.35417 5H5.75C6.18723 5 6.54167 5.35817 6.54167 5.8V7.4C6.54167 7.84183 6.18723 8.2 5.75 8.2H5.35417C4.91694 8.2 4.5625 8.55817 4.5625 9V10.2C4.5625 10.6418 4.91694 11 5.35417 11H6.14583C6.58306 11 6.9375 11.3582 6.9375 11.8V12.6C6.9375 13.0418 6.58306 13.4 6.14583 13.4H5.35417C4.91694 13.4 4.5625 13.7582 4.5625 14.2V15.4C4.5625 15.8418 4.91694 16.2 5.35417 16.2H6.14583C6.58306 16.2 6.9375 16.5582 6.9375 17V18.2M4.16667 25H16.8333C18.5822 25 20 23.5673 20 21.8V9.55633C20 8.94226 19.7671 8.35154 19.3491 7.90575L13.5776 1.74941C13.1291 1.271 12.5056 1 11.8534 1H4.16667C2.41777 1 1 2.43269 1 4.2V21.8C1 23.5673 2.41777 25 4.16667 25Z" stroke="#1751D0" stroke-width="1.5"/>
</svg>
